<svg width="154" height="42" viewBox="0 0 154 42" fill="none" xmlns="http://www.w3.org/2000/svg">
<path d="M0.737461 41V1.87774H24.3484V6.08033H5.47492V19.2994H23.1258V23.502H5.47492V36.7974H24.654V41H0.737461ZM36.2463 1.87774V41H31.738V1.87774H36.2463ZM62.4568 29.0035V11.6583H66.9651V41H62.4568V36.0333H62.1512C61.4635 37.5233 60.3937 38.7905 58.9419 39.8347C57.4901 40.8663 55.6563 41.3821 53.4404 41.3821C51.6065 41.3821 49.9764 40.9809 48.5501 40.1786C47.1238 39.3635 46.0031 38.141 45.188 36.5109C44.373 34.868 43.9655 32.7986 43.9655 30.3025V11.6583H48.4737V29.9969C48.4737 32.1364 49.0722 33.8429 50.2693 35.1164C51.4792 36.3899 53.0201 37.0266 54.8922 37.0266C56.0129 37.0266 57.1527 36.7401 58.3116 36.167C59.4832 35.5939 60.4638 34.7152 61.2534 33.5309C62.0557 32.3465 62.4568 30.8374 62.4568 29.0035ZM98.6772 11.6583L87.8269 41H83.2423L72.3919 11.6583H77.2822L85.3818 35.04H85.6874L93.7869 11.6583H98.6772ZM105.537 41.3056C104.594 41.3056 103.786 40.9682 103.111 40.2932C102.436 39.6182 102.098 38.8096 102.098 37.8672C102.098 36.9248 102.436 36.1161 103.111 35.4411C103.786 34.7662 104.594 34.4287 105.537 34.4287C106.479 34.4287 107.288 34.7662 107.963 35.4411C108.638 36.1161 108.975 36.9248 108.975 37.8672C108.975 38.4912 108.816 39.0643 108.498 39.5864C108.192 40.1085 107.778 40.5288 107.256 40.8472C106.747 41.1528 106.174 41.3056 105.537 41.3056ZM116.527 41V11.6583H121.036V41H116.527ZM118.82 6.76803C117.941 6.76803 117.183 6.46875 116.546 5.8702C115.922 5.27165 115.61 4.55212 115.61 3.7116C115.61 2.87108 115.922 2.15155 116.546 1.553C117.183 0.954448 117.941 0.655173 118.82 0.655173C119.698 0.655173 120.45 0.954448 121.074 1.553C121.71 2.15155 122.029 2.87108 122.029 3.7116C122.029 4.55212 121.71 5.27165 121.074 5.8702C120.45 6.46875 119.698 6.76803 118.82 6.76803ZM140.675 41.6113C138.026 41.6113 135.702 40.9809 133.702 39.7201C131.716 38.4593 130.162 36.6955 129.041 34.4287C127.933 32.1618 127.379 29.5129 127.379 26.482C127.379 23.4255 127.933 20.7575 129.041 18.478C130.162 16.1984 131.716 14.4282 133.702 13.1674C135.702 11.9066 138.026 11.2763 140.675 11.2763C143.324 11.2763 145.641 11.9066 147.628 13.1674C149.628 14.4282 151.181 16.1984 152.289 18.478C153.41 20.7575 153.97 23.4255 153.97 26.482C153.97 29.5129 153.41 32.1618 152.289 34.4287C151.181 36.6955 149.628 38.4593 147.628 39.7201C145.641 40.9809 143.324 41.6113 140.675 41.6113ZM140.675 37.5615C142.687 37.5615 144.343 37.0457 145.641 36.0142C146.94 34.9827 147.902 33.6264 148.526 31.9453C149.15 30.2643 149.462 28.4432 149.462 26.482C149.462 24.5208 149.15 22.6933 148.526 20.9995C147.902 19.3057 146.94 17.9367 145.641 16.8924C144.343 15.8482 142.687 15.326 140.675 15.326C138.663 15.326 137.007 15.8482 135.708 16.8924C134.409 17.9367 133.448 19.3057 132.824 20.9995C132.2 22.6933 131.888 24.5208 131.888 26.482C131.888 28.4432 132.2 30.2643 132.824 31.9453C133.448 33.6264 134.409 34.9827 135.708 36.0142C137.007 37.0457 138.663 37.5615 140.675 37.5615Z" fill="currentColor"/>
</svg>
