<svg width="142" height="42" viewBox="0 0 142 42" fill="none" xmlns="http://www.w3.org/2000/svg">
<path d="M0.737461 41V1.87774H24.3484V6.08033H5.47492V19.2994H23.1258V23.502H5.47492V36.7974H24.654V41H0.737461ZM36.2463 1.87774V41H31.738V1.87774H36.2463ZM62.4568 29.0035V11.6583H66.9651V41H62.4568V36.0333H62.1512C61.4635 37.5233 60.3937 38.7905 58.9419 39.8347C57.4901 40.8663 55.6563 41.3821 53.4404 41.3821C51.6065 41.3821 49.9764 40.9809 48.5501 40.1786C47.1238 39.3635 46.0031 38.141 45.188 36.5109C44.373 34.868 43.9655 32.7986 43.9655 30.3025V11.6583H48.4737V29.9969C48.4737 32.1364 49.0722 33.8429 50.2693 35.1164C51.4792 36.3899 53.0201 37.0266 54.8922 37.0266C56.0129 37.0266 57.1527 36.7401 58.3116 36.167C59.4832 35.5939 60.4638 34.7152 61.2534 33.5309C62.0557 32.3465 62.4568 30.8374 62.4568 29.0035ZM98.6772 11.6583L87.8269 41H83.2423L72.3919 11.6583H77.2822L85.3818 35.04H85.6874L93.7869 11.6583H98.6772ZM104.09 41V11.6583H108.598V41H104.09ZM106.382 6.76803C105.503 6.76803 104.746 6.46875 104.109 5.8702C103.485 5.27165 103.173 4.55212 103.173 3.7116C103.173 2.87108 103.485 2.15155 104.109 1.553C104.746 0.954448 105.503 0.655173 106.382 0.655173C107.261 0.655173 108.012 0.954448 108.636 1.553C109.273 2.15155 109.591 2.87108 109.591 3.7116C109.591 4.55212 109.273 5.27165 108.636 5.8702C108.012 6.46875 107.261 6.76803 106.382 6.76803ZM128.237 41.6113C125.588 41.6113 123.264 40.9809 121.265 39.7201C119.278 38.4593 117.724 36.6955 116.604 34.4287C115.496 32.1618 114.942 29.5129 114.942 26.482C114.942 23.4255 115.496 20.7575 116.604 18.478C117.724 16.1984 119.278 14.4282 121.265 13.1674C123.264 11.9066 125.588 11.2763 128.237 11.2763C130.886 11.2763 133.204 11.9066 135.191 13.1674C137.19 14.4282 138.744 16.1984 139.852 18.478C140.972 20.7575 141.533 23.4255 141.533 26.482C141.533 29.5129 140.972 32.1618 139.852 34.4287C138.744 36.6955 137.19 38.4593 135.191 39.7201C133.204 40.9809 130.886 41.6113 128.237 41.6113ZM128.237 37.5615C130.249 37.5615 131.905 37.0457 133.204 36.0142C134.503 34.9827 135.464 33.6264 136.088 31.9453C136.712 30.2643 137.024 28.4432 137.024 26.482C137.024 24.5208 136.712 22.6933 136.088 20.9995C135.464 19.3057 134.503 17.9367 133.204 16.8924C131.905 15.8482 130.249 15.326 128.237 15.326C126.225 15.326 124.57 15.8482 123.271 16.8924C121.972 17.9367 121.01 19.3057 120.386 20.9995C119.762 22.6933 119.45 24.5208 119.45 26.482C119.45 28.4432 119.762 30.2643 120.386 31.9453C121.01 33.6264 121.972 34.9827 123.271 36.0142C124.57 37.0457 126.225 37.5615 128.237 37.5615Z" fill="currentColor"/>
</svg>
