<svg width="1974" height="256" viewBox="0 0 1974 256" fill="none" xmlns="http://www.w3.org/2000/svg">
  <path d="M0 9.69147H44.4225L121.658 198.033H124.501L201.738 9.69147H246.161V251.978H211.333V76.6519H209.083L137.532 251.629H108.628L37.0781 76.5403H34.8274V251.978H0V9.69147ZM371.622 255.651C353.694 255.651 338.255 251.825 325.303 244.172C312.43 236.436 302.48 225.599 295.451 211.634C288.501 197.6 285.026 181.15 285.026 162.311C285.026 143.696 288.501 127.288 295.451 113.086C302.48 98.8977 312.272 87.8097 324.829 79.8499C337.465 71.8761 352.232 67.8962 369.133 67.8962C379.4 67.8962 389.351 69.5998 398.985 72.9792C408.62 76.3726 417.267 81.7072 424.928 88.9548C432.589 96.2165 438.629 105.643 443.052 117.233C447.475 128.74 449.686 142.747 449.686 159.225V171.765H305.046V145.274H414.978C414.978 135.96 413.082 127.721 409.291 120.543C405.5 113.281 400.17 107.57 393.3 103.394C386.507 99.2049 378.531 97.1241 369.37 97.1241C359.42 97.1241 350.732 99.568 343.308 104.456C335.964 109.259 330.279 115.572 326.25 123.378C322.301 131.114 320.328 139.507 320.328 148.584V169.28C320.328 181.429 322.459 191.763 326.724 200.281C331.067 208.799 337.109 215.307 344.849 219.804C352.588 224.216 361.63 226.423 371.977 226.423C378.689 226.423 384.809 225.473 390.338 223.588C395.866 221.619 400.644 218.7 404.671 214.832C408.7 210.964 411.779 206.188 413.911 200.518L447.436 206.551C444.75 216.41 439.932 225.04 432.983 232.456C426.113 239.787 417.466 245.513 407.041 249.618C396.695 253.64 384.889 255.651 371.622 255.651ZM553.765 255.525C539.075 255.525 525.966 251.783 514.435 244.284C502.984 236.715 493.982 225.948 487.427 211.997C480.951 197.949 477.712 181.121 477.712 161.473C477.712 141.839 480.99 125.039 487.545 111.075C494.179 97.1241 503.261 86.4273 514.79 79.026C526.321 71.6108 539.391 67.8962 554.001 67.8962C565.295 67.8962 574.376 69.7953 581.247 73.5798C588.197 77.2804 593.567 81.6233 597.357 86.5947C601.228 91.5662 604.229 95.9371 606.361 99.7215H608.494V9.69147H643.913V251.978H609.323V223.7H606.361C604.229 227.568 601.148 231.981 597.121 236.952C593.172 241.924 587.723 246.267 580.773 249.967C573.824 253.668 564.821 255.525 553.765 255.525ZM561.583 225.361C571.771 225.361 580.379 222.68 587.407 217.318C594.515 211.872 599.886 204.345 603.518 194.723C607.23 185.101 609.085 173.902 609.085 161.124C609.085 148.5 607.269 137.454 603.636 128C600.003 118.532 594.673 111.159 587.645 105.88C580.615 100.587 571.929 97.948 561.583 97.948C550.922 97.948 542.037 100.713 534.929 106.229C527.821 111.745 522.452 119.286 518.819 128.824C515.264 138.362 513.487 149.128 513.487 161.124C513.487 173.273 515.304 184.194 518.936 193.885C522.569 203.591 527.94 211.285 535.048 216.955C542.234 222.555 551.08 225.361 561.583 225.361ZM691.13 251.978V70.2701H726.55V251.978H691.13ZM709.018 42.2292C702.857 42.2292 697.566 40.1763 693.144 36.0707C688.799 31.8953 686.628 26.9238 686.628 21.1704C686.628 15.3332 688.799 10.3618 693.144 6.27012C697.566 2.08072 702.857 0 709.018 0C715.177 0 720.43 2.08072 724.773 6.27012C729.196 10.3618 731.406 15.3332 731.406 21.1704C731.406 26.9238 729.196 31.8953 724.773 36.0707C720.43 40.1763 715.177 42.2292 709.018 42.2292ZM823.816 256C812.286 256 801.861 253.877 792.543 249.618C783.224 245.275 775.84 239.005 770.39 230.808C765.021 222.597 762.335 212.542 762.335 200.63C762.335 190.38 764.309 181.945 768.258 175.312C772.207 168.693 777.537 163.442 784.251 159.588C790.962 155.72 798.466 152.801 806.758 150.832C815.05 148.863 823.5 147.355 832.108 146.336C843.007 145.079 851.851 144.045 858.644 143.263C865.436 142.384 870.371 141.015 873.451 139.116C876.532 137.231 878.071 134.144 878.071 129.885V129.061C878.071 118.727 875.149 110.726 869.305 105.042C863.54 99.3725 854.932 96.5238 843.481 96.5238C831.556 96.5238 822.158 99.1769 815.286 104.456C808.495 109.664 803.796 115.46 801.19 121.842L767.903 114.273C771.852 103.227 777.617 94.3172 785.199 87.5304C792.859 80.6738 801.664 75.7023 811.614 72.6301C821.565 69.4741 832.03 67.8962 843.007 67.8962C850.272 67.8962 857.972 68.762 866.107 70.5076C874.319 72.1554 881.981 75.2276 889.087 79.7242C896.274 84.2209 902.157 90.6585 906.738 99.0093C911.319 107.29 913.61 118.057 913.61 131.31V251.978H879.019V227.135H877.597C875.307 231.715 871.871 236.198 867.291 240.625C862.711 245.038 856.828 248.71 849.64 251.629C842.454 254.548 833.846 256 823.816 256ZM831.517 227.61C841.309 227.61 849.68 225.669 856.629 221.815C863.659 217.946 868.989 212.905 872.622 206.663C876.333 200.365 878.19 193.62 878.19 186.442V163.009C876.926 164.28 874.477 165.453 870.845 166.57C867.291 167.59 863.224 168.498 858.644 169.28C854.063 169.992 849.601 170.662 845.258 171.29C840.913 171.849 837.281 172.324 834.359 172.715C827.488 173.581 821.21 175.047 815.524 177.086C809.917 179.139 805.416 182.099 802.019 185.967C798.702 189.752 797.044 194.793 797.044 201.105C797.044 209.861 800.282 216.494 806.758 220.977C813.234 225.404 821.487 227.61 831.517 227.61ZM1092.74 251.978L1025.46 9.69147H1063.96L1111.22 197.321H1113.47L1162.63 9.69147H1200.78L1249.94 197.446H1252.19L1299.34 9.69147H1337.96L1270.55 251.978H1233.71L1182.65 70.5076H1180.76L1129.7 251.978H1092.74ZM1400.18 256C1388.66 256 1378.23 253.877 1368.91 249.618C1359.6 245.275 1352.21 239.005 1346.76 230.808C1341.39 222.597 1338.71 212.542 1338.71 200.63C1338.71 190.38 1340.68 181.945 1344.63 175.312C1348.58 168.693 1353.91 163.442 1360.62 159.588C1367.33 155.72 1374.83 152.801 1383.12 150.832C1391.42 148.863 1399.88 147.355 1408.48 146.336C1419.38 145.079 1428.22 144.045 1435.02 143.263C1441.81 142.384 1446.75 141.015 1449.82 139.116C1452.9 137.231 1454.44 134.144 1454.44 129.885V129.061C1454.44 118.727 1451.52 110.726 1445.67 105.042C1439.91 99.3725 1431.3 96.5238 1419.86 96.5238C1407.93 96.5238 1398.53 99.1769 1391.65 104.456C1384.87 109.664 1380.17 115.46 1377.56 121.842L1344.27 114.273C1348.22 103.227 1353.99 94.3172 1361.57 87.5304C1369.23 80.6738 1378.03 75.7023 1387.99 72.6301C1397.93 69.4741 1408.41 67.8962 1419.38 67.8962C1426.64 67.8962 1434.34 68.762 1442.48 70.5076C1450.69 72.1554 1458.35 75.2276 1465.46 79.7242C1472.64 84.2209 1478.53 90.6585 1483.1 99.0093C1487.69 107.29 1489.98 118.057 1489.98 131.31V251.978H1455.39V227.135H1453.96C1451.68 231.715 1448.24 236.198 1443.66 240.625C1439.08 245.038 1433.2 248.71 1426.01 251.629C1418.82 254.548 1410.22 256 1400.18 256ZM1407.89 227.61C1417.68 227.61 1426.05 225.669 1433 221.815C1440.04 217.946 1445.36 212.905 1449 206.663C1452.7 200.365 1454.56 193.62 1454.56 186.442V163.009C1453.29 164.28 1450.84 165.453 1447.22 166.57C1443.66 167.59 1439.6 168.498 1435.02 169.28C1430.43 169.992 1425.97 170.662 1421.63 171.29C1417.28 171.849 1413.65 172.324 1410.73 172.715C1403.86 173.581 1397.58 175.047 1391.89 177.086C1386.28 179.139 1381.78 182.099 1378.4 185.967C1375.07 189.752 1373.42 194.793 1373.42 201.105C1373.42 209.861 1376.65 216.494 1383.12 220.977C1389.6 225.404 1397.86 227.61 1407.89 227.61ZM1569.24 9.69147V251.978H1533.82V9.69147H1569.24ZM1648.97 9.69147V251.978H1613.55V9.69147H1648.97ZM1771.7 255.651C1753.78 255.651 1738.34 251.825 1725.39 244.172C1712.53 236.436 1702.57 225.599 1695.54 211.634C1688.59 197.6 1685.12 181.15 1685.12 162.311C1685.12 143.696 1688.59 127.288 1695.54 113.086C1702.57 98.8977 1712.36 87.8097 1724.92 79.8499C1737.56 71.8761 1752.32 67.8962 1769.23 67.8962C1779.49 67.8962 1789.44 69.5998 1799.07 72.9792C1808.7 76.3726 1817.36 81.7072 1825.02 88.9548C1832.69 96.2165 1838.73 105.643 1843.14 117.233C1847.56 128.74 1849.77 142.747 1849.77 159.225V171.765H1705.13V145.274H1815.07C1815.07 135.96 1813.18 127.721 1809.38 120.543C1805.59 113.281 1800.26 107.57 1793.39 103.394C1786.6 99.2049 1778.63 97.1241 1769.47 97.1241C1759.51 97.1241 1750.83 99.568 1743.4 104.456C1736.06 109.259 1730.37 115.572 1726.34 123.378C1722.39 131.114 1720.41 139.507 1720.41 148.584V169.28C1720.41 181.429 1722.55 191.763 1726.82 200.281C1731.15 208.799 1737.19 215.307 1744.94 219.804C1752.67 224.216 1761.72 226.423 1772.07 226.423C1778.78 226.423 1784.9 225.473 1790.43 223.588C1795.95 221.619 1800.73 218.7 1804.76 214.832C1808.79 210.964 1811.86 206.188 1814 200.518L1847.52 206.551C1844.84 216.41 1840.03 225.04 1833.08 232.456C1826.2 239.787 1817.56 245.513 1807.12 249.618C1796.79 253.64 1784.97 255.651 1771.7 255.651ZM1970.67 70.2701V98.6602H1871.29V70.2701H1970.67ZM1897.95 26.7283H1933.36V198.619C1933.36 205.49 1934.39 210.657 1936.44 214.12C1938.5 217.513 1941.14 219.846 1944.38 221.102C1947.7 222.289 1951.29 222.876 1955.16 222.876C1958 222.876 1960.49 222.68 1962.62 222.289C1964.76 221.884 1966.41 221.577 1967.6 221.34L1974 250.554C1971.94 251.35 1969.02 252.132 1965.23 252.928C1961.44 253.794 1956.7 254.268 1951.01 254.338C1941.7 254.506 1933 252.844 1924.95 249.381C1916.89 245.904 1910.38 240.541 1905.4 233.279C1900.43 226.032 1897.95 216.927 1897.95 205.965V26.7283Z" fill="currentColor"/>
</svg>
