<svg width="19" height="19" viewBox="0 0 19 19" fill="none" xmlns="http://www.w3.org/2000/svg">
<path d="M1.46154 18.9985L5.84615 18.9942C6.03997 18.9942 6.22584 18.9172 6.36289 18.7801C6.49993 18.6431 6.57692 18.4572 6.57692 18.2634C6.57692 18.0696 6.49993 17.8837 6.36289 17.7467C6.22584 17.6096 6.03997 17.5326 5.84615 17.5326L1.46154 17.537V13.1538C1.46154 12.96 1.38455 12.7742 1.2475 12.6371C1.11046 12.5001 0.924581 12.4231 0.730769 12.4231C0.536957 12.4231 0.351083 12.5001 0.214037 12.6371C0.0769915 12.7742 0 12.96 0 13.1538V19H1.46154V18.9985ZM1.46154 0.00146249V3.57628e-07H0V5.84615C0 6.03997 0.0769915 6.22584 0.214037 6.36289C0.351083 6.49993 0.536957 6.57692 0.730769 6.57692C0.924581 6.57692 1.11046 6.49993 1.2475 6.36289C1.38455 6.22584 1.46154 6.03997 1.46154 5.84615V1.463L5.84615 1.46738C6.03997 1.46738 6.22584 1.39039 6.36289 1.25335C6.49993 1.1163 6.57692 0.930427 6.57692 0.736615C6.57692 0.542803 6.49993 0.35693 6.36289 0.219884C6.22584 0.0828385 6.03997 0.00584609 5.84615 0.00584609L1.46154 0.00146249V0.00146249ZM17.5385 18.9985V19H19V13.1538C19 12.96 18.923 12.7742 18.786 12.6371C18.6489 12.5001 18.463 12.4231 18.2692 12.4231C18.0754 12.4231 17.8895 12.5001 17.7525 12.6371C17.6155 12.7742 17.5385 12.96 17.5385 13.1538V17.537L13.1538 17.5326C12.96 17.5326 12.7742 17.6096 12.6371 17.7467C12.5001 17.8837 12.4231 18.0696 12.4231 18.2634C12.4231 18.4572 12.5001 18.6431 12.6371 18.7801C12.7742 18.9172 12.96 18.9942 13.1538 18.9942L17.5385 18.9985V18.9985ZM17.5385 0.00146249L13.1538 0.00584609C12.96 0.00584609 12.7742 0.0828385 12.6371 0.219884C12.5001 0.35693 12.4231 0.542803 12.4231 0.736615C12.4231 0.930427 12.5001 1.1163 12.6371 1.25335C12.7742 1.39039 12.96 1.46738 13.1538 1.46738L17.5385 1.463V5.84615C17.5385 6.03997 17.6155 6.22584 17.7525 6.36289C17.8895 6.49993 18.0754 6.57692 18.2692 6.57692C18.463 6.57692 18.6489 6.49993 18.786 6.36289C18.923 6.22584 19 6.03997 19 5.84615V3.57628e-07H17.5385V0.00146249V0.00146249Z" fill="white"/>
</svg>
