<?xml version="1.0" encoding="utf-8"?>
<!-- Generator: Adobe Illustrator 26.0.3, SVG Export Plug-In . SVG Version: 6.00 Build 0)  -->
<svg version="1.1" id="Layer_1" xmlns="http://www.w3.org/2000/svg" xmlns:xlink="http://www.w3.org/1999/xlink" x="0px" y="0px"
	 viewBox="0 0 13 12" style="enable-background:new 0 0 10.2 12;" xml:space="preserve">
<path d="M8.4,9.8c0.6-0.6,1-1.2,1.3-1.9c0.3-0.7,0.5-1.5,0.5-2.3c0-0.8-0.2-1.6-0.5-2.3C9.4,2.5,9,1.9,8.4,1.3L7.8,2
	c0.5,0.5,0.8,1,1.1,1.6c0.3,0.6,0.4,1.3,0.4,1.9c0,0.7-0.1,1.3-0.4,1.9C8.6,8.1,8.2,8.7,7.8,9.1L8.4,9.8z" fill="white"/>
<path d="M7.1,8.5C7.5,8.1,7.8,7.6,8,7.1c0.2-0.5,0.3-1,0.3-1.6C8.3,5,8.2,4.5,8,4C7.8,3.4,7.5,3,7.1,2.6L6.5,3.3
	c0.3,0.3,0.5,0.7,0.7,1c0.2,0.4,0.2,0.8,0.2,1.2c0,0.4-0.1,0.8-0.2,1.2C7,7.2,6.8,7.5,6.5,7.8L7.1,8.5z M5.3,1.4
	c0.1,0,0.1,0.1,0.2,0.2c0,0.1,0.1,0.2,0.1,0.2v7.4c0,0.1,0,0.2-0.1,0.2c0,0.1-0.1,0.1-0.2,0.2c-0.1,0-0.2,0.1-0.3,0
	c-0.1,0-0.2,0-0.2-0.1L2.6,7.8H0.5c-0.1,0-0.2,0-0.3-0.1C0,7.6,0,7.5,0,7.4V3.7c0-0.1,0-0.2,0.1-0.3c0.1-0.1,0.2-0.1,0.3-0.1h2.1
	l2.2-1.7C4.9,1.4,4.9,1.4,5,1.4C5.1,1.4,5.2,1.4,5.3,1.4L5.3,1.4z" fill="white"/>
</svg>
