<svg width="14" height="14" viewBox="0 0 14 14" fill="none" xmlns="http://www.w3.org/2000/svg">
  <path d="M8.37305 10.7198H10.712M10.712 10.7198H13.051M10.712 10.7198V8.38086M10.712 10.7198V13.0588" stroke="currentColor" stroke-width="1.16949" stroke-linecap="round" stroke-linejoin="round"/>
  <path d="M0.583984 4.79513V1.05276C0.583984 0.92869 0.63327 0.809704 0.720999 0.721975C0.808728 0.634247 0.927714 0.584961 1.05178 0.584961H4.79415C4.91822 0.584961 5.03721 0.634247 5.12494 0.721975C5.21267 0.809704 5.26195 0.92869 5.26195 1.05276V4.79513C5.26195 4.9192 5.21267 5.03818 5.12494 5.12591C5.03721 5.21364 4.91822 5.26293 4.79415 5.26293H1.05178C0.927714 5.26293 0.808728 5.21364 0.720999 5.12591C0.63327 5.03818 0.583984 4.9192 0.583984 4.79513ZM0.583984 12.5917V8.84937C0.583984 8.7253 0.63327 8.60631 0.720999 8.51859C0.808728 8.43086 0.927714 8.38157 1.05178 8.38157H4.79415C4.91822 8.38157 5.03721 8.43086 5.12494 8.51859C5.21267 8.60631 5.26195 8.7253 5.26195 8.84937V12.5917C5.26195 12.7158 5.21267 12.8348 5.12494 12.9225C5.03721 13.0103 4.91822 13.0595 4.79415 13.0595H1.05178C0.927714 13.0595 0.808728 13.0103 0.720999 12.9225C0.63327 12.8348 0.583984 12.7158 0.583984 12.5917ZM8.38059 4.79513V1.05276C8.38059 0.92869 8.42988 0.809704 8.51761 0.721975C8.60534 0.634247 8.72432 0.584961 8.84839 0.584961H12.5908C12.7148 0.584961 12.8338 0.634247 12.9215 0.721975C13.0093 0.809704 13.0586 0.92869 13.0586 1.05276V4.79513C13.0586 4.9192 13.0093 5.03818 12.9215 5.12591C12.8338 5.21364 12.7148 5.26293 12.5908 5.26293H8.84839C8.72432 5.26293 8.60534 5.21364 8.51761 5.12591C8.42988 5.03818 8.38059 4.9192 8.38059 4.79513Z" stroke="currentColor" stroke-width="1.16949"/>
</svg>
