<svg width="12" height="12" viewBox="0 0 12 12" fill="none" xmlns="http://www.w3.org/2000/svg">
  <path d="M7.23438 9.3042H9.29688M9.29688 9.3042H11.3594M9.29688 9.3042V7.2417M9.29688 9.3042V11.3667" stroke="currentColor" stroke-width="0.733333" stroke-linecap="round" stroke-linejoin="round"/>
  <path d="M0.367188 4.0792V0.779199C0.367187 0.669797 0.410647 0.564876 0.488006 0.487518C0.565365 0.410159 0.670286 0.366699 0.779687 0.366699H4.07969C4.18909 0.366699 4.29401 0.410159 4.37137 0.487518C4.44873 0.564876 4.49219 0.669797 4.49219 0.779199V4.0792C4.49219 4.1886 4.44873 4.29352 4.37137 4.37088C4.29401 4.44824 4.18909 4.4917 4.07969 4.4917H0.779687C0.670286 4.4917 0.565365 4.44824 0.488006 4.37088C0.410647 4.29352 0.367187 4.1886 0.367188 4.0792ZM0.367188 10.9542V7.6542C0.367187 7.5448 0.410647 7.43988 0.488006 7.36252C0.565365 7.28516 0.670286 7.2417 0.779687 7.2417H4.07969C4.18909 7.2417 4.29401 7.28516 4.37137 7.36252C4.44873 7.43988 4.49219 7.5448 4.49219 7.6542V10.9542C4.49219 11.0636 4.44873 11.1685 4.37137 11.2459C4.29401 11.3232 4.18909 11.3667 4.07969 11.3667H0.779687C0.670286 11.3667 0.565365 11.3232 0.488006 11.2459C0.410647 11.1685 0.367187 11.0636 0.367188 10.9542ZM7.24219 4.0792V0.779199C7.24219 0.669797 7.28565 0.564876 7.36301 0.487518C7.44036 0.410159 7.54529 0.366699 7.65469 0.366699H10.9547C11.0641 0.366699 11.169 0.410159 11.2464 0.487518C11.3237 0.564876 11.3672 0.669797 11.3672 0.779199V4.0792C11.3672 4.1886 11.3237 4.29352 11.2464 4.37088C11.169 4.44824 11.0641 4.4917 10.9547 4.4917H7.65469C7.54529 4.4917 7.44036 4.44824 7.36301 4.37088C7.28565 4.29352 7.24219 4.1886 7.24219 4.0792Z" stroke="currentColor" stroke-width="0.733333"/>
</svg>
