<?xml version="1.0" encoding="utf-8"?>
<!-- Generator: Adobe Illustrator 26.0.3, SVG Export Plug-In . SVG Version: 6.00 Build 0)  -->
<svg version="1.1" id="Layer_1" xmlns="http://www.w3.org/2000/svg" xmlns:xlink="http://www.w3.org/1999/xlink" x="0px" y="0px"
	 viewBox="0 0 13 12" style="enable-background:new 0 0 10.2 12;" xml:space="preserve">
<path d="M5.3,1.4c0.1,0,0.1,0.1,0.2,0.2c0,0.1,0.1,0.2,0.1,0.2v7.4c0,0.1,0,0.2-0.1,0.2c0,0.1-0.1,0.1-0.2,0.2c-0.1,0-0.2,0.1-0.3,0
	c-0.1,0-0.2,0-0.2-0.1L2.6,7.8H0.5c-0.1,0-0.2,0-0.3-0.1C0,7.6,0,7.5,0,7.4V3.7c0-0.1,0-0.2,0.1-0.3c0.1-0.1,0.2-0.1,0.3-0.1h2.1
	l2.2-1.7C4.9,1.4,4.9,1.4,5,1.4C5.1,1.4,5.2,1.4,5.3,1.4L5.3,1.4z" fill="white"/>
<g>
	<rect x="7.7" y="3.4" transform="matrix(0.7071 -0.7071 0.7071 0.7071 -1.4992 7.4586)" width="1.2" height="4.2" fill="white"/>
	<rect x="6.1" y="4.9" transform="matrix(0.7071 -0.7071 0.7071 0.7071 -1.5119 7.4281)" width="4.2" height="1.2" fill="white"/>
</g>
</svg>
