<svg width="21" height="21" viewBox="0 0 21 21" fill="none" xmlns="http://www.w3.org/2000/svg">
<path d="M10.4999 6.23932C9.94038 6.23932 9.38635 6.34952 8.86942 6.56364C8.3525 6.77776 7.88281 7.09159 7.48717 7.48723C7.09153 7.88287 6.7777 8.35256 6.56358 8.86948C6.34946 9.38641 6.23926 9.94044 6.23926 10.5C6.23926 11.0595 6.34946 11.6135 6.56358 12.1304C6.7777 12.6474 7.09153 13.1171 7.48717 13.5127C7.88281 13.9083 8.3525 14.2222 8.86942 14.4363C9.38635 14.6504 9.94038 14.7606 10.4999 14.7606C11.6299 14.7606 12.7136 14.3117 13.5126 13.5127C14.3117 12.7137 14.7605 11.63 14.7605 10.5C14.7605 9.36997 14.3117 8.28626 13.5126 7.48723C12.7136 6.68821 11.6299 6.23932 10.4999 6.23932V6.23932ZM7.55184 10.5C7.55184 9.71809 7.86244 8.96824 8.41531 8.41537C8.96817 7.8625 9.71803 7.5519 10.4999 7.5519C11.2818 7.5519 12.0316 7.8625 12.5845 8.41537C13.1374 8.96824 13.448 9.71809 13.448 10.5C13.448 11.2818 13.1374 12.0317 12.5845 12.5846C12.0316 13.1374 11.2818 13.448 10.4999 13.448C9.71803 13.448 8.96817 13.1374 8.41531 12.5846C7.86244 12.0317 7.55184 11.2818 7.55184 10.5Z" fill="white"/>
<path d="M12.8574 1.76214C12.1657 -0.58738 8.83433 -0.58738 8.1426 1.76214L8.01922 2.18085C7.97091 2.34486 7.88651 2.49599 7.77221 2.62314C7.65791 2.75029 7.51661 2.85026 7.35865 2.91571C7.2007 2.98115 7.0301 3.01042 6.85936 3.00137C6.68863 2.99232 6.52208 2.94518 6.37193 2.8634L5.98866 2.65338C3.83602 1.48256 1.48256 3.83733 2.6547 5.98866L2.8634 6.37193C2.94518 6.52208 2.99232 6.68863 3.00137 6.85936C3.01042 7.0301 2.98115 7.2007 2.91571 7.35865C2.85026 7.51661 2.75029 7.65791 2.62314 7.77221C2.49599 7.88651 2.34486 7.97091 2.18085 8.01922L1.76214 8.1426C-0.58738 8.83433 -0.58738 12.1657 1.76214 12.8574L2.18085 12.9808C2.34486 13.0291 2.49599 13.1135 2.62314 13.2278C2.75029 13.3421 2.85026 13.4834 2.91571 13.6413C2.98115 13.7993 3.01042 13.9699 3.00137 14.1406C2.99232 14.3114 2.94518 14.4779 2.8634 14.6281L2.65338 15.0113C1.48256 17.164 3.83602 19.5188 5.98866 18.3453L6.37193 18.1366C6.52208 18.0548 6.68863 18.0077 6.85936 17.9986C7.0301 17.9896 7.2007 18.0188 7.35865 18.0843C7.51661 18.1497 7.65791 18.2497 7.77221 18.3769C7.88651 18.504 7.97091 18.6551 8.01922 18.8191L8.1426 19.2379C8.83433 21.5874 12.1657 21.5874 12.8574 19.2379L12.9808 18.8191C13.0291 18.6551 13.1135 18.504 13.2278 18.3769C13.3421 18.2497 13.4834 18.1497 13.6413 18.0843C13.7993 18.0188 13.9699 17.9896 14.1406 17.9986C14.3114 18.0077 14.4779 18.0548 14.6281 18.1366L15.0113 18.3466C17.164 19.5188 19.5188 17.1627 18.3453 15.0113L18.1366 14.6281C18.0548 14.4779 18.0077 14.3114 17.9986 14.1406C17.9896 13.9699 18.0188 13.7993 18.0843 13.6413C18.1497 13.4834 18.2497 13.3421 18.3769 13.2278C18.504 13.1135 18.6551 13.0291 18.8191 12.9808L19.2379 12.8574C21.5874 12.1657 21.5874 8.83433 19.2379 8.1426L18.8191 8.01922C18.6551 7.97091 18.504 7.88651 18.3769 7.77221C18.2497 7.65791 18.1497 7.51661 18.0843 7.35865C18.0188 7.2007 17.9896 7.0301 17.9986 6.85936C18.0077 6.68863 18.0548 6.52208 18.1366 6.37193L18.3466 5.98866C19.5188 3.83602 17.1627 1.48256 15.0113 2.6547L14.6281 2.8634C14.4779 2.94518 14.3114 2.99232 14.1406 3.00137C13.9699 3.01042 13.7993 2.98115 13.6413 2.91571C13.4834 2.85026 13.3421 2.75029 13.2278 2.62314C13.1135 2.49599 13.0291 2.34486 12.9808 2.18085L12.8574 1.76214V1.76214ZM9.40137 2.1336C9.72426 1.0376 11.2757 1.0376 11.5986 2.1336L11.722 2.55232C11.8257 2.9042 12.0069 3.22841 12.2522 3.50118C12.4975 3.77395 12.8008 3.98836 13.1397 4.1287C13.4787 4.26904 13.8447 4.33174 14.211 4.31221C14.5774 4.29268 14.9347 4.19142 15.2568 4.01584L15.6388 3.80583C16.6416 3.26111 17.7389 4.35712 17.1929 5.36124L16.9842 5.74451C16.8088 6.06666 16.7078 6.42394 16.6885 6.79019C16.6692 7.15644 16.7321 7.52237 16.8725 7.86116C17.013 8.19996 17.2274 8.50304 17.5002 8.7482C17.773 8.99335 18.0972 9.17437 18.449 9.27799L18.8664 9.40137C19.9624 9.72426 19.9624 11.2757 18.8664 11.5986L18.4477 11.722C18.0958 11.8257 17.7716 12.0069 17.4988 12.2522C17.226 12.4975 17.0116 12.8008 16.8713 13.1397C16.731 13.4787 16.6683 13.8447 16.6878 14.211C16.7073 14.5774 16.8086 14.9347 16.9842 15.2568L17.1942 15.6388C17.7389 16.6416 16.6429 17.7389 15.6388 17.1929L15.2568 16.9842C14.9346 16.8086 14.5772 16.7074 14.2108 16.6879C13.8444 16.6685 13.4783 16.7313 13.1393 16.8718C12.8003 17.0122 12.4971 17.2268 12.2519 17.4997C12.0066 17.7726 11.8256 18.097 11.722 18.449L11.5986 18.8664C11.2757 19.9624 9.72426 19.9624 9.40137 18.8664L9.27799 18.4477C9.17422 18.096 8.99309 17.7719 8.74787 17.4993C8.50266 17.2267 8.19956 17.0124 7.86078 16.872C7.522 16.7317 7.15612 16.669 6.78995 16.6884C6.42377 16.7078 6.06657 16.8088 5.74451 16.9842L5.36124 17.1942C4.35843 17.7389 3.26111 16.6429 3.80714 15.6388L4.01584 15.2568C4.19167 14.9346 4.29313 14.5772 4.31279 14.2107C4.33244 13.8442 4.2698 13.478 4.12944 13.1389C3.98909 12.7998 3.77458 12.4964 3.50168 12.251C3.22877 12.0056 2.90438 11.8244 2.55232 11.7207L2.1336 11.5973C1.0376 11.2744 1.0376 9.72295 2.1336 9.40006L2.55232 9.27667C2.90383 9.17286 3.22769 8.99176 3.50019 8.74664C3.77268 8.50151 3.98692 8.19856 4.12722 7.85995C4.26752 7.52133 4.33034 7.15564 4.31107 6.78962C4.29179 6.4236 4.19093 6.06652 4.01584 5.74451L3.80583 5.36124C3.26111 4.35843 4.35712 3.26111 5.36124 3.80714L5.74451 4.01584C6.06657 4.19117 6.42377 4.29224 6.78995 4.31164C7.15612 4.33104 7.522 4.26828 7.86078 4.12796C8.19956 3.98764 8.50266 3.77332 8.74787 3.50068C8.99309 3.22805 9.17422 2.90402 9.27799 2.55232L9.40137 2.1336V2.1336Z" fill="white"/>
</svg>
