<?xml version="1.0" encoding="utf-8"?>
<!-- Generator: Adobe Illustrator 26.0.3, SVG Export Plug-In . SVG Version: 6.00 Build 0)  -->
<svg version="1.1" id="Layer_1" xmlns="http://www.w3.org/2000/svg" xmlns:xlink="http://www.w3.org/1999/xlink" x="0px" y="0px"
	 viewBox="0 0 25 25" style="enable-background:new 0 0 25 25;" xml:space="preserve">
<style type="text/css">
	.__st-video { transform: scale(2) translate(-25%, -21%); }
</style>
<path class="__st-video" d="M14.5,16.5H7.7c-0.2,0-0.4-0.1-0.6-0.2c-0.2-0.2-0.2-0.4-0.2-0.6V9.3c0-0.2,0.1-0.4,0.2-0.6s0.4-0.2,0.6-0.2
	h6.9c0.2,0,0.4,0.1,0.6,0.2c0.2,0.2,0.2,0.4,0.2,0.6v1.6l2.2-1.6c0.1,0,0.1-0.1,0.2-0.1c0.1,0,0.1,0,0.2,0c0.1,0,0.1,0.1,0.2,0.1
	c0,0.1,0.1,0.1,0.1,0.2v5.6c0,0.1,0,0.1-0.1,0.2c0,0.1-0.1,0.1-0.2,0.1c-0.1,0-0.1,0-0.2,0c-0.1,0-0.1,0-0.2-0.1l-2.2-1.6v1.6
	c0,0.2-0.1,0.4-0.2,0.6C14.9,16.4,14.7,16.5,14.5,16.5z"/>
</svg>
