<svg width="13" height="12" viewBox="0 0 13 12" fill="none" xmlns="http://www.w3.org/2000/svg">
<path d="M9.71196 11.08C10.4407 10.3533 11.0186 9.4898 11.4125 8.53906C11.8064 7.58832 12.0085 6.56911 12.0072 5.54C12.0085 4.51089 11.8064 3.49168 11.4125 2.54094C11.0186 1.5902 10.4407 0.726679 9.71196 0L9.05933 0.65171C9.7023 1.2929 10.2122 2.05484 10.5598 2.89374C10.9073 3.73264 11.0856 4.63196 11.0845 5.54C11.0845 7.44904 10.3102 9.17741 9.05933 10.4283L9.71196 11.08V11.08Z" fill="white"/>
<path d="M8.40781 9.77644C8.96502 9.2207 9.40692 8.56034 9.70812 7.83329C10.0093 7.10624 10.1639 6.32683 10.1629 5.53986C10.1639 4.75289 10.0093 3.97349 9.70812 3.24644C9.40692 2.51939 8.96502 1.85902 8.40781 1.30328L7.7561 1.95499C8.22759 2.42525 8.60149 2.98403 8.85634 3.59924C9.11119 4.21445 9.24195 4.87396 9.24112 5.53986C9.2422 6.20586 9.11164 6.8655 8.85694 7.48087C8.60225 8.09625 8.22845 8.65522 7.75703 9.12565L8.40781 9.77644Z" fill="white"/>
<path d="M7.10429 8.47307C7.49005 8.08831 7.79596 7.6311 8.00446 7.12773C8.21296 6.62436 8.31993 6.08475 8.31922 5.53991C8.31993 4.99507 8.21296 4.45546 8.00446 3.95209C7.79596 3.44872 7.49005 2.99152 7.10429 2.60675L6.45258 3.25846C6.75261 3.55774 6.99054 3.91337 7.15269 4.30489C7.31483 4.69642 7.39801 5.11614 7.39742 5.53991C7.39795 5.96368 7.31476 6.38338 7.15261 6.7749C6.99047 7.16642 6.75257 7.52205 6.45258 7.82136L7.10429 8.47307ZM5.26991 1.43791C5.348 1.47553 5.4139 1.53441 5.46004 1.60778C5.50618 1.68115 5.5307 1.76605 5.53078 1.85272V9.2271C5.53066 9.31383 5.50607 9.39876 5.45984 9.47214C5.4136 9.54551 5.34761 9.60436 5.26943 9.64191C5.19125 9.67945 5.10407 9.69418 5.01789 9.6844C4.93172 9.67462 4.85005 9.64072 4.78228 9.5866L2.60408 7.8444H0.460899C0.338661 7.8444 0.221429 7.79585 0.134994 7.70941C0.0485588 7.62298 0 7.50574 0 7.38351V3.69632C0 3.57408 0.0485588 3.45685 0.134994 3.37041C0.221429 3.28398 0.338661 3.23542 0.460899 3.23542H2.60408L4.78228 1.49322C4.8501 1.43901 4.93185 1.40506 5.01812 1.39527C5.1044 1.38549 5.19168 1.40027 5.26991 1.43791V1.43791Z" fill="white"/>
</svg>
