<svg width="29" height="29" viewBox="0 0 29 29" fill="none" xmlns="http://www.w3.org/2000/svg">
<path d="M20.7501 0.452726L21.3108 2.16621C21.4848 2.68757 21.7793 3.16123 22.1708 3.54933C22.5622 3.93743 23.0397 4.22919 23.565 4.40127L25.2906 4.95803L25.3245 4.96763C25.4576 5.01416 25.5728 5.10055 25.6544 5.21489C25.7359 5.32923 25.7797 5.46589 25.7797 5.60599C25.7797 5.7461 25.7359 5.88275 25.6544 5.99709C25.5728 6.11144 25.4576 6.19783 25.3245 6.24435L23.5988 6.80111C23.0735 6.97319 22.596 7.26495 22.2046 7.65305C21.8132 8.04115 21.5187 8.51482 21.3446 9.03617L20.7839 10.7481C20.737 10.8802 20.65 10.9947 20.5349 11.0756C20.4197 11.1566 20.2821 11.2001 20.141 11.2001C19.9999 11.2001 19.8623 11.1566 19.7471 11.0756C19.632 10.9947 19.5449 10.8802 19.4981 10.7481L18.9358 9.03617C18.7631 8.51366 18.4695 8.03859 18.0786 7.64906C17.6874 7.25878 17.2095 6.96506 16.6832 6.79152L14.9575 6.23475C14.8244 6.18823 14.7091 6.10184 14.6276 5.98749C14.546 5.87315 14.5022 5.7365 14.5022 5.59639C14.5022 5.45629 14.546 5.31963 14.6276 5.20529C14.7091 5.09095 14.8244 5.00456 14.9575 4.95803L16.6832 4.40127C17.2019 4.22454 17.6723 3.9307 18.0573 3.54287C18.4423 3.15504 18.7314 2.6838 18.9019 2.16621L19.4626 0.454326C19.5092 0.321612 19.5961 0.206567 19.7115 0.125154C19.8268 0.0437415 19.9648 0 20.1063 0C20.2479 0 20.3859 0.0437415 20.5012 0.125154C20.6166 0.206567 20.7035 0.321612 20.7501 0.454326M28.6534 13.1431L27.4191 12.7463C27.0446 12.622 26.7044 12.4129 26.4253 12.1355C26.1462 11.8581 25.9359 11.52 25.8111 11.148L25.4083 9.92571C25.3749 9.83121 25.3128 9.74933 25.2305 9.69141C25.1483 9.63348 25.0499 9.60237 24.949 9.60237C24.8482 9.60237 24.7498 9.63348 24.6676 9.69141C24.5853 9.74933 24.5232 9.83121 24.4898 9.92571L24.0902 11.148C23.9677 11.5176 23.7608 11.8542 23.4858 12.1314C23.2108 12.4086 22.8751 12.6191 22.5047 12.7463L21.2721 13.1431C21.1777 13.177 21.096 13.2389 21.0383 13.3205C20.9806 13.4021 20.9497 13.4994 20.9497 13.5991C20.9497 13.6988 20.9806 13.7961 21.0383 13.8776C21.096 13.9592 21.1777 14.0212 21.2721 14.055L22.5047 14.4534C22.8804 14.5778 23.2216 14.7875 23.5013 15.0658C23.781 15.3441 23.9915 15.6833 24.116 16.0565L24.5156 17.2788C24.549 17.3733 24.6111 17.4552 24.6933 17.5131C24.7756 17.5711 24.874 17.6022 24.9748 17.6022C25.0757 17.6022 25.174 17.5711 25.2563 17.5131C25.3386 17.4552 25.4007 17.3733 25.434 17.2788L25.8353 16.0565C25.9602 15.6843 26.1708 15.3462 26.4501 15.0688C26.7295 14.7914 27.0701 14.5823 27.4449 14.4582L28.6775 14.0614C28.772 14.0276 28.8536 13.9656 28.9113 13.8841C28.969 13.8025 29 13.7052 29 13.6055C29 13.5058 28.969 13.4085 28.9113 13.3269C28.8536 13.2453 28.772 13.1834 28.6775 13.1495L28.6534 13.1431ZM24.1692 19.0419C24.4259 19.1454 24.6955 19.1982 24.9781 19.2003C25.2568 19.2003 25.5275 19.1667 25.7805 19.0739V20.0003C25.7805 21.0611 25.3561 22.0784 24.6006 22.8285C23.8452 23.5786 22.8206 24 21.7523 24H4.0282C2.95985 24 1.93527 23.5786 1.17983 22.8285C0.424398 22.0784 0 21.0611 0 20.0003V8.80099C0 7.74019 0.424398 6.72284 1.17983 5.97274C1.93527 5.22264 2.95985 4.80124 4.0282 4.80124H13.032C12.9368 5.05507 12.8888 5.32394 12.8902 5.59479C12.8902 5.87851 12.9386 6.14729 13.0352 6.40114H4.0282C3.38719 6.40114 2.77244 6.65398 2.31918 7.10404C1.86592 7.5541 1.61128 8.16451 1.61128 8.80099V20.0003C1.61128 20.6367 1.86592 21.2471 2.31918 21.6972C2.77244 22.1473 3.38719 22.4001 4.0282 22.4001H21.7523C22.3933 22.4001 23.008 22.1473 23.4613 21.6972C23.9145 21.2471 24.1692 20.6367 24.1692 20.0003V19.0419ZM4.83384 10.4009C4.83384 10.1887 4.91872 9.98525 5.0698 9.83523C5.22089 9.68521 5.42581 9.60093 5.63948 9.60093H12.0846C12.2983 9.60093 12.5032 9.68521 12.6543 9.83523C12.8054 9.98525 12.8902 10.1887 12.8902 10.4009C12.8902 10.613 12.8054 10.8165 12.6543 10.9665C12.5032 11.1165 12.2983 11.2008 12.0846 11.2008H5.63948C5.42581 11.2008 5.22089 11.1165 5.0698 10.9665C4.91872 10.8165 4.83384 10.613 4.83384 10.4009ZM4.83384 14.4006C4.83384 14.1885 4.91872 13.985 5.0698 13.835C5.22089 13.685 5.42581 13.6007 5.63948 13.6007H16.9184C17.1321 13.6007 17.337 13.685 17.4881 13.835C17.6392 13.985 17.7241 14.1885 17.7241 14.4006C17.7241 14.6128 17.6392 14.8163 17.4881 14.9663C17.337 15.1163 17.1321 15.2006 16.9184 15.2006H5.63948C5.42581 15.2006 5.22089 15.1163 5.0698 14.9663C4.91872 14.8163 4.83384 14.6128 4.83384 14.4006ZM5.63948 17.6004C5.42581 17.6004 5.22089 17.6847 5.0698 17.8347C4.91872 17.9847 4.83384 18.1882 4.83384 18.4004C4.83384 18.6125 4.91872 18.816 5.0698 18.966C5.22089 19.116 5.42581 19.2003 5.63948 19.2003H13.6959C13.9095 19.2003 14.1145 19.116 14.2655 18.966C14.4166 18.816 14.5015 18.6125 14.5015 18.4004C14.5015 18.1882 14.4166 17.9847 14.2655 17.8347C14.1145 17.6847 13.9095 17.6004 13.6959 17.6004H5.63948Z" fill="currentColor"/>
</svg>
