<?xml version="1.0" encoding="utf-8"?>
<!-- Generator: Adobe Illustrator 26.5.0, SVG Export Plug-In . SVG Version: 6.00 Build 0)  -->
<svg version="1.1" id="Layer_1" xmlns="http://www.w3.org/2000/svg" xmlns:xlink="http://www.w3.org/1999/xlink" x="0px" y="0px"
	 viewBox="0 0 4091 936" style="enable-background:new 0 0 4091 936;" xml:space="preserve">
<path d="M0,24h643v109H117v269h486v103H117v299h535v106H0V24z"/>
<path d="M707.2,24h121v780h444v106h-565V24z"/>
<path d="M1419.4,24v547.9c0,64.4,12.2,117.9,36.5,160.5c36.1,64.4,96.9,96.5,182.5,96.5c102.6,0,172.3-34.8,209.2-104.4
	c19.9-37.8,29.8-88.7,29.8-152.7V24h121v497.8c0,109-14.7,192.9-44.2,251.6c-54,107-156.1,160.5-306.1,160.5
	s-251.9-53.5-305.5-160.5c-29.5-58.7-44.2-142.6-44.2-251.6V24H1419.4L1419.4,24z"/>
<path d="M2147,24l254.2,754.5L2653.6,24h134.6l-324.1,886h-127.4L2014.2,24H2147z"/>
<path d="M3061.2,24h121v886h-121V24z"/>
<path d="M4002.4,150.8c58.7,78.4,88.1,178.7,88.1,301c0,132.3-33.6,242.2-100.8,329.9C3910.9,884.5,3798.4,936,3652.4,936
	c-136.4,0-243.6-45-321.6-135.1c-69.6-86.8-104.4-196.6-104.4-329.3c0-119.8,29.8-222.3,89.3-307.6C3392.2,54.7,3505.2,0,3654.9,0
	C3804.5,0,3927.2,50.3,4002.4,150.8z M3896.4,715.3c47.4-75.8,71.1-163,71.1-261.5c0-104.1-27.3-188-81.9-251.5
	c-54.6-63.5-129.3-95.3-224-95.3s-166.9,31.5-224.9,94.4c-58.1,62.9-87.1,155.7-87.1,278.4c0,98.1,24.9,180.9,74.7,248.2
	c49.8,67.4,130.5,101,242.2,101C3778,829,3849,791.1,3896.4,715.3z"/>
<path d="M2814.8,926c46.9,0,85-38.1,85-85c0-46.9-38.1-85-85-85c-46.9,0-85,38.1-85,85C2729.8,887.9,2767.9,926,2814.8,926z"/>
</svg>
