<svg width="427" height="98" viewBox="0 0 427 98" fill="none" xmlns="http://www.w3.org/2000/svg">
<path d="M0 2.50439H66.9647V13.878H12.1849V41.9468H62.7989V52.6943H12.1849V83.8934H67.902V94.9539H0V2.50439Z" fill="url(#paint0_linear_66_791)"/>
<path d="M73.6484 2.50439H86.2499V83.8934H132.49V94.9539H73.6484V2.50439Z" fill="url(#paint1_linear_66_791)"/>
<path d="M147.819 2.50439V59.6791C147.819 66.3968 149.086 71.9793 151.62 76.4285C155.378 83.1463 161.713 86.503 170.624 86.503C181.307 86.503 188.571 82.8718 192.414 75.6105C194.482 71.6652 195.517 66.3551 195.517 59.6801V2.50439H208.119V54.4514C208.119 65.8281 206.585 74.5806 203.519 80.7088C197.89 91.8757 187.263 97.4582 171.638 97.4582C156.013 97.4582 145.403 91.8757 139.819 80.7088C136.752 74.5806 135.219 65.8281 135.219 54.4514V2.50439H147.82H147.819Z" fill="url(#paint2_linear_66_791)"/>
<path d="M223.597 2.50439L250.075 81.2347L276.362 2.50439H290.379L256.625 94.9539H243.358L209.771 2.50439H223.597Z" fill="url(#paint3_linear_66_791)"/>
<path d="M318.807 2.50439H331.408V94.9539H318.807V2.50439Z" fill="url(#paint4_linear_66_791)"/>
<path d="M416.827 15.7321C422.942 23.9138 426.001 34.3816 426.001 47.1347C426.001 60.9374 422.503 72.4122 415.506 81.557C407.296 92.2982 395.587 97.6668 380.382 97.6668C366.181 97.6668 355.016 92.9681 346.89 83.5708C339.643 74.5095 336.02 63.0577 336.02 49.2122C336.02 36.7106 339.12 26.0121 345.32 17.1178C353.279 5.70662 365.051 0 380.634 0C396.217 0 408.993 5.24542 416.827 15.7321ZM405.791 74.6399C410.725 66.7306 413.191 57.637 413.191 47.3559C413.191 36.4894 410.347 27.7411 404.658 21.111C398.968 14.481 391.191 11.1659 381.326 11.1659C371.462 11.1659 363.944 14.4497 357.899 21.0171C351.853 27.5846 348.83 37.2657 348.83 50.0626C348.83 60.3009 351.422 68.9344 356.607 75.961C361.791 82.9896 370.2 86.5029 381.829 86.5029C393.459 86.5029 400.857 82.5493 405.791 74.6399Z" fill="url(#paint5_linear_66_791)"/>
<path d="M293.151 96.6224C298.04 96.6224 302.003 92.6515 302.003 87.7531C302.003 82.8547 298.04 78.8838 293.151 78.8838C288.263 78.8838 284.299 82.8547 284.299 87.7531C284.299 92.6515 288.263 96.6224 293.151 96.6224Z" fill="url(#paint6_linear_66_791)"/>
<defs>
<linearGradient id="paint0_linear_66_791" x1="520.304" y1="22.069" x2="381.588" y2="311.863" gradientUnits="userSpaceOnUse">
<stop offset="0.275459" stop-color="#900097"/>
<stop offset="1" stop-color="#1E00CC"/>
</linearGradient>
<linearGradient id="paint1_linear_66_791" x1="520.305" y1="22.069" x2="381.589" y2="311.863" gradientUnits="userSpaceOnUse">
<stop offset="0.275459" stop-color="#900097"/>
<stop offset="1" stop-color="#1E00CC"/>
</linearGradient>
<linearGradient id="paint2_linear_66_791" x1="520.303" y1="22.069" x2="381.588" y2="311.863" gradientUnits="userSpaceOnUse">
<stop offset="0.275459" stop-color="#900097"/>
<stop offset="1" stop-color="#1E00CC"/>
</linearGradient>
<linearGradient id="paint3_linear_66_791" x1="520.304" y1="22.069" x2="381.589" y2="311.863" gradientUnits="userSpaceOnUse">
<stop offset="0.275459" stop-color="#900097"/>
<stop offset="1" stop-color="#1E00CC"/>
</linearGradient>
<linearGradient id="paint4_linear_66_791" x1="520.305" y1="22.0691" x2="381.589" y2="311.863" gradientUnits="userSpaceOnUse">
<stop offset="0.275459" stop-color="#900097"/>
<stop offset="1" stop-color="#1E00CC"/>
</linearGradient>
<linearGradient id="paint5_linear_66_791" x1="520.306" y1="22.0689" x2="381.59" y2="311.863" gradientUnits="userSpaceOnUse">
<stop offset="0.275459" stop-color="#900097"/>
<stop offset="1" stop-color="#1E00CC"/>
</linearGradient>
<linearGradient id="paint6_linear_66_791" x1="520.306" y1="22.0691" x2="381.59" y2="311.863" gradientUnits="userSpaceOnUse">
<stop offset="0.275459" stop-color="#900097"/>
<stop offset="1" stop-color="#1E00CC"/>
</linearGradient>
</defs>
</svg>
