<svg width="26" height="26" viewBox="0 0 26 26" fill="none" xmlns="http://www.w3.org/2000/svg">
<path d="M23.1111 4.33334H2.88889C2.5058 4.33334 2.1384 4.48552 1.86751 4.7564C1.59662 5.02729 1.44444 5.39469 1.44444 5.77778V20.2222C1.44444 20.6053 1.59662 20.9727 1.86751 21.2436C2.1384 21.5145 2.5058 21.6667 2.88889 21.6667H23.1111C23.4942 21.6667 23.8616 21.5145 24.1325 21.2436C24.4034 20.9727 24.5556 20.6053 24.5556 20.2222V5.77778C24.5556 5.39469 24.4034 5.02729 24.1325 4.7564C23.8616 4.48552 23.4942 4.33334 23.1111 4.33334V4.33334ZM21.9989 20.2222H4.08778L9.14333 14.9933L8.10333 13.9894L2.88889 19.3844V6.87556L11.8661 15.8094C12.1367 16.0785 12.5028 16.2295 12.8844 16.2295C13.266 16.2295 13.6321 16.0785 13.9028 15.8094L23.1111 6.65167V19.2906L17.7956 13.975L16.7772 14.9933L21.9989 20.2222ZM3.835 5.77778H21.9411L12.8844 14.7839L3.835 5.77778Z" fill="currentColor"/>
</svg>
