<svg width="30" height="27" viewBox="0 0 30 27" fill="none" xmlns="http://www.w3.org/2000/svg">
  <path d="M11.7355 16.2732H10.7355V17.2732V25.3789C10.7355 25.7128 10.455 26 10.1051 26H5.21385C4.86401 26 4.58343 25.7128 4.58343 25.3789V14.0309V13.0309H3.58343H1.31436L14.5687 1.16052C14.569 1.16024 14.5693 1.15997 14.5696 1.15969C14.8099 0.946769 15.1829 0.946769 15.4232 1.15969C15.4235 1.15997 15.4238 1.16024 15.4241 1.16052L28.6784 13.0309H26.4093H25.4093V14.0309V25.3789C25.4093 25.7128 25.1287 26 24.7789 26H19.8876C19.5378 26 19.2572 25.7128 19.2572 25.3789V17.2732V16.2732H18.2572H11.7355Z" stroke="currentColor" stroke-width="2"/>
</svg>
