<svg width="16" height="17" viewBox="0 0 16 17" fill="none" xmlns="http://www.w3.org/2000/svg">
<path d="M14.72 0.5H5.12C4.78063 0.500353 4.45525 0.640942 4.21528 0.890914C3.97531 1.14089 3.84034 1.47982 3.84 1.83333V11.5373C3.45263 11.2973 3.01074 11.1693 2.56 11.1667C2.05368 11.1667 1.55873 11.3231 1.13774 11.6161C0.716751 11.9091 0.38863 12.3256 0.19487 12.8128C0.0011092 13.3001 -0.0495873 13.8363 0.0491908 14.3536C0.147969 14.8709 0.391785 15.346 0.749808 15.719C1.10783 16.0919 1.56398 16.3459 2.06057 16.4488C2.55716 16.5517 3.07189 16.4988 3.53967 16.297C4.00745 16.0952 4.40727 15.7534 4.68856 15.3149C4.96986 14.8763 5.12 14.3607 5.12 13.8333V5.83333H14.72V11.5373C14.3326 11.2972 13.8907 11.1693 13.44 11.1667C12.9337 11.1667 12.4387 11.3231 12.0177 11.6161C11.5968 11.9091 11.2686 12.3256 11.0749 12.8128C10.8811 13.3001 10.8304 13.8363 10.9292 14.3536C11.028 14.8709 11.2718 15.346 11.6298 15.719C11.9878 16.0919 12.444 16.3459 12.9406 16.4488C13.4372 16.5517 13.9519 16.4988 14.4197 16.297C14.8874 16.0952 15.2873 15.7534 15.5686 15.3149C15.8499 14.8763 16 14.3607 16 13.8333V1.83333C15.9997 1.47982 15.8647 1.14089 15.6247 0.890914C15.3848 0.640942 15.0594 0.500353 14.72 0.5ZM2.56 15.1667C2.30684 15.1667 2.05937 15.0885 1.84887 14.942C1.63838 14.7954 1.47432 14.5872 1.37744 14.3436C1.28055 14.0999 1.25521 13.8319 1.3046 13.5732C1.35398 13.3146 1.47589 13.077 1.6549 12.8905C1.83392 12.7041 2.06199 12.5771 2.31029 12.5256C2.55858 12.4742 2.81595 12.5006 3.04984 12.6015C3.28373 12.7024 3.48363 12.8733 3.62428 13.0926C3.76493 13.3118 3.84 13.5696 3.84 13.8333C3.83966 14.1868 3.7047 14.5258 3.46472 14.7758C3.22475 15.0257 2.89937 15.1663 2.56 15.1667ZM13.44 15.1667C13.1868 15.1667 12.9394 15.0885 12.7289 14.942C12.5184 14.7954 12.3543 14.5872 12.2574 14.3436C12.1606 14.0999 12.1352 13.8319 12.1846 13.5732C12.234 13.3146 12.3559 13.077 12.5349 12.8905C12.7139 12.7041 12.942 12.5771 13.1903 12.5256C13.4386 12.4742 13.6959 12.5006 13.9298 12.6015C14.1637 12.7024 14.3636 12.8733 14.5043 13.0926C14.6449 13.3118 14.72 13.5696 14.72 13.8333C14.7195 14.1868 14.5845 14.5256 14.3445 14.7756C14.1046 15.0255 13.7793 15.1661 13.44 15.1667ZM5.12 1.83333H14.72V4.5H5.12V1.83333Z" fill="currentColor"/>
</svg>
