<svg width="16" height="17" viewBox="0 0 16 17" fill="none" xmlns="http://www.w3.org/2000/svg">
<path d="M15.2 0.5C14.9878 0.5 14.7843 0.584285 14.6343 0.734315C14.4843 0.884344 14.4 1.08783 14.4 1.3V2.9H12.8V1.3C12.8 1.08783 12.7157 0.884344 12.5657 0.734315C12.4157 0.584285 12.2122 0.5 12 0.5C11.7878 0.5 11.5843 0.584285 11.4343 0.734315C11.2843 0.884344 11.2 1.08783 11.2 1.3V2.1H4.8V1.3C4.8 1.08783 4.71571 0.884344 4.56569 0.734315C4.41566 0.584285 4.21217 0.5 4 0.5C3.78783 0.5 3.58434 0.584285 3.43431 0.734315C3.28429 0.884344 3.2 1.08783 3.2 1.3V2.9H1.6V1.3C1.6 1.08783 1.51571 0.884344 1.36569 0.734315C1.21566 0.584285 1.01217 0.5 0.8 0.5C0.587827 0.5 0.384344 0.584285 0.234315 0.734315C0.0842854 0.884344 0 1.08783 0 1.3V15.7C0 15.9122 0.0842854 16.1157 0.234315 16.2657C0.384344 16.4157 0.587827 16.5 0.8 16.5C1.01217 16.5 1.21566 16.4157 1.36569 16.2657C1.51571 16.1157 1.6 15.9122 1.6 15.7V14.1H3.2V15.7C3.2 15.9122 3.28429 16.1157 3.43431 16.2657C3.58434 16.4157 3.78783 16.5 4 16.5C4.21217 16.5 4.41566 16.4157 4.56569 16.2657C4.71571 16.1157 4.8 15.9122 4.8 15.7V14.9H11.2V15.7C11.2 15.9122 11.2843 16.1157 11.4343 16.2657C11.5843 16.4157 11.7878 16.5 12 16.5C12.2122 16.5 12.4157 16.4157 12.5657 16.2657C12.7157 16.1157 12.8 15.9122 12.8 15.7V14.1H14.4V15.7C14.4 15.9122 14.4843 16.1157 14.6343 16.2657C14.7843 16.4157 14.9878 16.5 15.2 16.5C15.4122 16.5 15.6157 16.4157 15.7657 16.2657C15.9157 16.1157 16 15.9122 16 15.7V1.3C16 1.08783 15.9157 0.884344 15.7657 0.734315C15.6157 0.584285 15.4122 0.5 15.2 0.5ZM3.2 12.5H1.6V10.9H3.2V12.5ZM3.2 9.3H1.6V7.7H3.2V9.3ZM3.2 6.1H1.6V4.5H3.2V6.1ZM11.2 13.3H4.8V9.3H11.2V13.3ZM11.2 7.7H4.8V3.7H11.2V7.7ZM14.4 12.5H12.8V10.9H14.4V12.5ZM14.4 9.3H12.8V7.7H14.4V9.3ZM14.4 6.1H12.8V4.5H14.4V6.1Z" fill="currentColor"/>
</svg>
