<svg width="21" height="17" viewBox="0 0 21 17" fill="none" xmlns="http://www.w3.org/2000/svg">
<path d="M20.1875 11.9182C20.1875 12.1878 20.0775 12.4463 19.8817 12.6369C19.6858 12.8275 19.4203 12.9346 19.1433 12.9346H16.4197L17.9512 15.467C18.0217 15.5813 18.0682 15.7081 18.088 15.8401C18.1078 15.9721 18.1005 16.1065 18.0665 16.2357C18.0325 16.3649 17.9725 16.4863 17.89 16.5927C17.8075 16.6992 17.7041 16.7887 17.5857 16.8559C17.4265 16.9522 17.2424 17.0022 17.055 16.9999C16.8737 17.0003 16.6955 16.9543 16.5382 16.8666C16.381 16.7789 16.2501 16.6526 16.1587 16.5002L11.2162 8.36106C11.0755 8.12857 11.0353 7.85118 11.1047 7.5899C11.1741 7.32862 11.3472 7.10485 11.5861 6.96783C11.7043 6.89998 11.8352 6.85548 11.9711 6.83685C12.1071 6.81822 12.2454 6.82584 12.3783 6.85926C12.6468 6.92676 12.8767 7.0953 13.0175 7.32778L15.1841 10.9019H19.1433C19.4203 10.9019 19.6858 11.009 19.8817 11.1996C20.0775 11.3902 20.1875 11.6487 20.1875 11.9182ZM10.5462 10.9019H7.43109L13.0784 1.59395C13.1969 1.36397 13.2214 1.09881 13.1469 0.851944C13.0724 0.605083 12.9045 0.394899 12.6771 0.263794C12.4497 0.13269 12.1796 0.0904222 11.9214 0.145519C11.6632 0.200616 11.4361 0.348976 11.2859 0.56067L10.0937 2.51712L8.90164 0.56067C8.83742 0.436032 8.74752 0.325592 8.63756 0.236219C8.5276 0.146846 8.39992 0.0804524 8.26247 0.0411685C8.12501 0.00188469 7.98073 -0.009449 7.83858 0.00787237C7.69643 0.0251937 7.55947 0.0707997 7.4362 0.141853C7.31294 0.212907 7.20602 0.307888 7.12209 0.420887C7.03816 0.533887 6.97901 0.662488 6.94833 0.79869C6.91765 0.934893 6.9161 1.07578 6.94376 1.2126C6.97142 1.34941 7.02772 1.47922 7.10913 1.59395L8.88424 4.51592L5.00337 10.9019H1.04418C0.767247 10.9019 0.501656 11.009 0.305834 11.1996C0.110012 11.3902 0 11.6487 0 11.9182C0 12.1878 0.110012 12.4463 0.305834 12.6369C0.501656 12.8275 0.767247 12.9346 1.04418 12.9346H10.5462C10.8232 12.9346 11.0888 12.8275 11.2846 12.6369C11.4804 12.4463 11.5904 12.1878 11.5904 11.9182C11.5904 11.6487 11.4804 11.3902 11.2846 11.1996C11.0888 11.009 10.8232 10.9019 10.5462 10.9019ZM4.07231 14.4337C3.95483 14.365 3.82452 14.3198 3.68894 14.3005C3.55335 14.2812 3.41519 14.2883 3.28245 14.3214C3.14972 14.3545 3.02504 14.4129 2.91567 14.4932C2.80629 14.5736 2.71438 14.6742 2.64526 14.7894L2.23629 15.467C2.16576 15.5813 2.11926 15.7081 2.09946 15.8401C2.07967 15.9721 2.08698 16.1065 2.12097 16.2357C2.15496 16.3649 2.21496 16.4863 2.29749 16.5927C2.38002 16.6992 2.48344 16.7887 2.60175 16.8559C2.76097 16.9522 2.94513 17.0022 3.13254 16.9999C3.3138 17.0003 3.49197 16.9543 3.64925 16.8666C3.80653 16.7789 3.93741 16.6526 4.0288 16.5002L4.44647 15.8227C4.58582 15.5901 4.62469 15.3133 4.55454 15.0528C4.48439 14.7924 4.31096 14.5698 4.07231 14.4337V14.4337Z" fill="currentColor"/>
</svg>
