<svg width="20" height="25" viewBox="0 0 20 25" fill="none" xmlns="http://www.w3.org/2000/svg">
  <path fill-rule="evenodd" clip-rule="evenodd" d="M3.75 23.1114V23.5556C3.75 24.2919 4.34695 24.8889 5.08333 24.8889H18.6666C19.403 24.8889 20 24.2919 20 23.5556V4.88899C20 4.15261 19.403 3.55566 18.6666 3.55566H18.3334V21.7781C18.3334 22.5145 17.7364 23.1114 17 23.1114H3.75Z" fill="currentColor"/>
  <path fill-rule="evenodd" clip-rule="evenodd" d="M0 1.33332C0 0.596948 0.596951 0 1.33333 0H15.111C15.8474 0 16.4444 0.596951 16.4444 1.33333V19.9999C16.4444 20.7363 15.8474 21.3332 15.111 21.3332H1.33333C0.596951 21.3332 0 20.7363 0 19.9999V1.33332ZM1.77787 2.66671H14.6667V16H1.77787V2.66671ZM14.6667 17.3333H1.77787V18.6666H14.6667V17.3333Z" fill="currentColor"/>
</svg>
