<svg width="11" height="11" viewBox="0 0 11 11" fill="none" xmlns="http://www.w3.org/2000/svg">
<path d="M6.27197 4.7282C5.86243 4.31883 5.30708 4.08887 4.72803 4.08887C4.14897 4.08887 3.59362 4.31883 3.18408 4.7282L1.63963 6.27215C1.23008 6.6817 1 7.23716 1 7.81635C1 8.3955 1.23008 8.951 1.63963 9.3605C2.04917 9.7701 2.60464 10.0002 3.18383 10.0002C3.76301 10.0002 4.31848 9.7701 4.72803 9.3605L5.5 8.5886" stroke="currentColor" stroke-linecap="round" stroke-linejoin="round"/>
<path d="M4.72754 6.27197C5.13708 6.68134 5.69243 6.91131 6.27149 6.91131C6.85054 6.91131 7.4059 6.68134 7.81544 6.27197L9.3599 4.72803C9.7694 4.31848 9.9995 3.76301 9.9995 3.18383C9.9995 2.60464 9.7694 2.04917 9.3599 1.63963C8.9503 1.23008 8.3949 1 7.81569 1C7.2365 1 6.68103 1.23008 6.27149 1.63963L5.49951 2.4116" stroke="currentColor" stroke-linecap="round" stroke-linejoin="round"/>
</svg>
