<svg width="13" height="16" viewBox="0 0 13 16" fill="none" xmlns="http://www.w3.org/2000/svg">
<path d="M3.61111 7.27273H9.38889V5.09091C9.38889 4.28788 9.10677 3.60227 8.54253 3.03409C7.9783 2.46591 7.29745 2.18182 6.5 2.18182C5.70255 2.18182 5.0217 2.46591 4.45747 3.03409C3.89323 3.60227 3.61111 4.28788 3.61111 5.09091V7.27273ZM13 8.36364V14.9091C13 15.2121 12.8947 15.4697 12.684 15.6818C12.4734 15.8939 12.2176 16 11.9167 16H1.08333C0.782407 16 0.52662 15.8939 0.315972 15.6818C0.105324 15.4697 0 15.2121 0 14.9091V8.36364C0 8.06061 0.105324 7.80303 0.315972 7.59091C0.52662 7.37879 0.782407 7.27273 1.08333 7.27273H1.44444V5.09091C1.44444 3.69697 1.94097 2.5 2.93403 1.5C3.92708 0.5 5.11574 0 6.5 0C7.88426 0 9.07292 0.5 10.066 1.5C11.059 2.5 11.5556 3.69697 11.5556 5.09091V7.27273H11.9167C12.2176 7.27273 12.4734 7.37879 12.684 7.59091C12.8947 7.80303 13 8.06061 13 8.36364Z" fill="currentColor"/>
</svg>
