<svg width="175" height="32" fill="none" xmlns="http://www.w3.org/2000/svg"><g clip-path="url(#a)" fill="#0051ff"><path d="M174.857 31.699 128.847 2.41C126.411.871 123.842 0 121.439 0c-5.934 0-9.945 3.383-9.945 10.55v13.814c0 1.474-.862 2.328-2.005 2.328-.696 0-1.459-.352-2.288-1.256l-19.64-22.07C85.788 1.39 83.451 0 80.766 0c-3.895 0-7.16 2.646-7.16 7.987V25.37c0 .854-.464 1.29-1.044 1.29-.382 0-.763-.202-1.11-.654L54.677 3.516C52.54.653 50.468 0 48.628 0c-4.093 0-6.695 2.595-6.695 7.401V31.7h5.585V6.58c0-.888.447-1.24.928-1.24.415 0 .713.185 1.044.62l17.204 23.075C68.136 30.962 70.174 32 72.562 32c4.143 0 6.63-2.395 6.63-7.217V7.318c0-1.357.745-1.993 1.706-1.993.547 0 1.044.218 1.69.904l19.426 21.802c2.337 2.63 4.79 3.969 7.69 3.969 4.757 0 7.376-2.914 7.376-8.607V9.997c0-3.115 1.972-4.655 4.276-4.655 1.425 0 2.552.62 3.729 1.373l39.264 24.984h10.508ZM11.188 13.178H3.729v5.024h7.458v-5.024Z"/><path d="M11.8 5.643V.318H0v31.38h11.8v-5.341H5.586V5.643h6.216ZM29.684 14.15c5.47 1.088 8.204 3.985 8.204 8.121 0 5.174-3.679 9.428-10.275 9.428h-11.47V.319H27.43c6.166 0 9.43 3.348 9.43 7.987 0 3.85-2.883 6.899-7.192 7.92V14.15h.016Zm-3.513 12.207c4.276 0 5.966-1.926 5.966-4.287 0-2.361-1.724-3.868-5.966-3.868h-5.718v-5.024h5.336c3.547 0 5.586-1.574 5.586-3.918 0-2.16-1.525-3.617-5.072-3.617h-4.558v20.714h4.426ZM65.22 24.481H45.96v-5.023h15.232l4.027 5.023ZM164.233.318l-20.27 13.547-1.044.084-26.535 17.75h9.579l19.525-13.062.845.034L173.796.318h-9.563Z"/></g><defs><clipPath id="a"><path fill="#fff" d="M0 0h174.857v32H0z"/></clipPath></defs></svg>