<svg width="84" height="84" viewBox="0 0 84 84" fill="none" xmlns="http://www.w3.org/2000/svg">
<path d="M66.5 36.75H17.5C13.634 36.75 10.5 39.884 10.5 43.75V71.75C10.5 75.616 13.634 78.75 17.5 78.75H66.5C70.366 78.75 73.5 75.616 73.5 71.75V43.75C73.5 39.884 70.366 36.75 66.5 36.75Z" stroke="currentColor" stroke-width="5" stroke-linecap="round" stroke-linejoin="round"/>
<path d="M26.25 36.75V21C26.25 16.8228 27.9094 12.8168 30.8631 9.86307C33.8168 6.90937 37.8228 5.25 42 5.25C46.1772 5.25 50.1832 6.90937 53.1369 9.86307C56.0906 12.8168 57.75 16.8228 57.75 21V36.75" stroke="currentColor" stroke-width="5" stroke-linecap="round" stroke-linejoin="round"/>
<path d="M44.777 46.1818L44.2869 61.3203H39.9084L39.4183 46.1818H44.777ZM42.0923 68.3089C41.3324 68.3089 40.679 68.0391 40.1321 67.4993C39.5923 66.9595 39.3224 66.3061 39.3224 65.5391C39.3224 64.7862 39.5923 64.1435 40.1321 63.6108C40.679 63.071 41.3324 62.8011 42.0923 62.8011C42.8239 62.8011 43.4666 63.071 44.0206 63.6108C44.5817 64.1435 44.8622 64.7862 44.8622 65.5391C44.8622 66.0504 44.7308 66.5156 44.468 66.9347C44.2124 67.3537 43.875 67.6875 43.456 67.9361C43.044 68.1847 42.5895 68.3089 42.0923 68.3089Z" fill="currentColor"/>
</svg>
