<svg width="26" height="26" viewBox="0 0 26 26" fill="none" xmlns="http://www.w3.org/2000/svg">
  <g clip-path="url(#clip0_2557_6036)">
    <path d="M13.0001 1.63647C6.72397 1.63647 1.63647 6.72397 1.63647 13.0001C1.63647 19.2762 6.72397 24.3637 13.0001 24.3637C19.2762 24.3637 24.3637 19.2762 24.3637 13.0001C24.3637 6.72397 19.2762 1.63647 13.0001 1.63647Z" stroke="currentColor" stroke-width="1.70455" stroke-linecap="round" stroke-linejoin="round"/>
    <path d="M4.21704 20.2114C4.21704 20.2114 6.75 24.3637 13 24.3637C19.25 24.3637 21.7841 20.2114 21.7841 20.2114M13 13.0001C13.9041 13.0001 14.7713 12.6409 15.4106 12.0016C16.0499 11.3622 16.4091 10.4951 16.4091 9.59098C16.4091 8.68683 16.0499 7.81971 15.4106 7.18038C14.7713 6.54106 13.9041 6.18188 13 6.18188C12.0958 6.18188 11.2287 6.54106 10.5894 7.18038C9.95008 7.81971 9.5909 8.68683 9.5909 9.59098C9.5909 10.4951 9.95008 11.3622 10.5894 12.0016C11.2287 12.6409 12.0958 13.0001 13 13.0001Z" fill="currentColor"/>
    <path d="M4.21704 20.2114C4.21704 20.2114 6.75 16.9773 13 16.9773C19.25 16.9773 21.7841 20.2114 21.7841 20.2114M13 13.0001C13.9041 13.0001 14.7713 12.6409 15.4106 12.0016C16.0499 11.3622 16.4091 10.4951 16.4091 9.59098C16.4091 8.68683 16.0499 7.81971 15.4106 7.18038C14.7713 6.54106 13.9041 6.18188 13 6.18188C12.0958 6.18188 11.2287 6.54106 10.5894 7.18038C9.95008 7.81971 9.5909 8.68683 9.5909 9.59098C9.5909 10.4951 9.95008 11.3622 10.5894 12.0016C11.2287 12.6409 12.0958 13.0001 13 13.0001Z" fill="currentColor"/>
    <path d="M15.4106 12.0016C14.7713 12.6409 13.9041 13.0001 13 13.0001C12.0958 13.0001 11.2287 12.6409 10.5894 12.0016C9.95008 11.3622 9.5909 10.4951 9.5909 9.59098C9.5909 8.68683 9.95008 7.81971 10.5894 7.18038C11.2287 6.54106 12.0958 6.18188 13 6.18188C13.9041 6.18188 14.7713 6.54106 15.4106 7.18038C16.0499 7.81971 16.4091 8.68683 16.4091 9.59098C16.4091 10.4951 16.0499 11.3622 15.4106 12.0016Z" fill="currentColor"/>
    <path d="M4.21704 20.2114C4.21704 20.2114 6.75 24.3637 13 24.3637C19.25 24.3637 21.7841 20.2114 21.7841 20.2114M13 13.0001C13.9041 13.0001 14.7713 12.6409 15.4106 12.0016C16.0499 11.3622 16.4091 10.4951 16.4091 9.59098C16.4091 8.68683 16.0499 7.81971 15.4106 7.18038C14.7713 6.54106 13.9041 6.18188 13 6.18188C12.0958 6.18188 11.2287 6.54106 10.5894 7.18038C9.95008 7.81971 9.5909 8.68683 9.5909 9.59098C9.5909 10.4951 9.95008 11.3622 10.5894 12.0016C11.2287 12.6409 12.0958 13.0001 13 13.0001Z" stroke="currentColor" stroke-width="1.13636" stroke-linecap="round" stroke-linejoin="round"/>
    <path d="M4.21704 20.2114C4.21704 20.2114 6.75 16.9773 13 16.9773C19.25 16.9773 21.7841 20.2114 21.7841 20.2114M13 13.0001C13.9041 13.0001 14.7713 12.6409 15.4106 12.0016C16.0499 11.3622 16.4091 10.4951 16.4091 9.59098C16.4091 8.68683 16.0499 7.81971 15.4106 7.18038C14.7713 6.54106 13.9041 6.18188 13 6.18188C12.0958 6.18188 11.2287 6.54106 10.5894 7.18038C9.95008 7.81971 9.5909 8.68683 9.5909 9.59098C9.5909 10.4951 9.95008 11.3622 10.5894 12.0016C11.2287 12.6409 12.0958 13.0001 13 13.0001Z" stroke="currentColor" stroke-width="1.13636" stroke-linecap="round" stroke-linejoin="round"/>
    <path d="M15.4106 12.0016C14.7713 12.6409 13.9041 13.0001 13 13.0001C12.0958 13.0001 11.2287 12.6409 10.5894 12.0016C9.95008 11.3622 9.5909 10.4951 9.5909 9.59098C9.5909 8.68683 9.95008 7.81971 10.5894 7.18038C11.2287 6.54106 12.0958 6.18188 13 6.18188C13.9041 6.18188 14.7713 6.54106 15.4106 7.18038C16.0499 7.81971 16.4091 8.68683 16.4091 9.59098C16.4091 10.4951 16.0499 11.3622 15.4106 12.0016Z" stroke="currentColor" stroke-width="1.13636" stroke-linecap="round" stroke-linejoin="round"/>
  </g>
  <defs>
    <clipPath id="clip0_2557_6036">
      <rect width="25" height="25" fill="currentColor" transform="translate(0.5 0.5)"/>
    </clipPath>
  </defs>
</svg>
