<svg width="31" height="31" viewBox="0 0 31 31" fill="none" xmlns="http://www.w3.org/2000/svg">
<path d="M0 0.96875C0 0.711822 0.102064 0.465416 0.28374 0.28374C0.465416 0.102064 0.711822 0 0.96875 0L6.78125 0C7.03818 0 7.28458 0.102064 7.46626 0.28374C7.64794 0.465416 7.75 0.711822 7.75 0.96875C7.75 1.22568 7.64794 1.47208 7.46626 1.65376C7.28458 1.83544 7.03818 1.9375 6.78125 1.9375H1.9375V6.78125C1.9375 7.03818 1.83544 7.28458 1.65376 7.46626C1.47208 7.64794 1.22568 7.75 0.96875 7.75C0.711822 7.75 0.465416 7.64794 0.28374 7.46626C0.102064 7.28458 0 7.03818 0 6.78125V0.96875ZM23.25 0.96875C23.25 0.711822 23.3521 0.465416 23.5337 0.28374C23.7154 0.102064 23.9618 0 24.2188 0L30.0312 0C30.2882 0 30.5346 0.102064 30.7163 0.28374C30.8979 0.465416 31 0.711822 31 0.96875V6.78125C31 7.03818 30.8979 7.28458 30.7163 7.46626C30.5346 7.64794 30.2882 7.75 30.0312 7.75C29.7743 7.75 29.5279 7.64794 29.3462 7.46626C29.1646 7.28458 29.0625 7.03818 29.0625 6.78125V1.9375H24.2188C23.9618 1.9375 23.7154 1.83544 23.5337 1.65376C23.3521 1.47208 23.25 1.22568 23.25 0.96875V0.96875ZM0.96875 23.25C1.22568 23.25 1.47208 23.3521 1.65376 23.5337C1.83544 23.7154 1.9375 23.9618 1.9375 24.2188V29.0625H6.78125C7.03818 29.0625 7.28458 29.1646 7.46626 29.3462C7.64794 29.5279 7.75 29.7743 7.75 30.0312C7.75 30.2882 7.64794 30.5346 7.46626 30.7163C7.28458 30.8979 7.03818 31 6.78125 31H0.96875C0.711822 31 0.465416 30.8979 0.28374 30.7163C0.102064 30.5346 0 30.2882 0 30.0312V24.2188C0 23.9618 0.102064 23.7154 0.28374 23.5337C0.465416 23.3521 0.711822 23.25 0.96875 23.25V23.25ZM30.0312 23.25C30.2882 23.25 30.5346 23.3521 30.7163 23.5337C30.8979 23.7154 31 23.9618 31 24.2188V30.0312C31 30.2882 30.8979 30.5346 30.7163 30.7163C30.5346 30.8979 30.2882 31 30.0312 31H24.2188C23.9618 31 23.7154 30.8979 23.5337 30.7163C23.3521 30.5346 23.25 30.2882 23.25 30.0312C23.25 29.7743 23.3521 29.5279 23.5337 29.3462C23.7154 29.1646 23.9618 29.0625 24.2188 29.0625H29.0625V24.2188C29.0625 23.9618 29.1646 23.7154 29.3462 23.5337C29.5279 23.3521 29.7743 23.25 30.0312 23.25ZM7.75 7.75H9.6875V9.6875H7.75V7.75Z" fill="currentColor"/>
<path d="M13.5625 3.875H3.875V13.5625H13.5625V3.875ZM5.8125 5.8125H11.625V11.625H5.8125V5.8125ZM9.6875 21.3125H7.75V23.25H9.6875V21.3125Z" fill="currentColor"/>
<path d="M13.5625 17.4375H3.875V27.125H13.5625V17.4375ZM5.8125 19.375H11.625V25.1875H5.8125V19.375ZM21.3125 7.75H23.25V9.6875H21.3125V7.75Z" fill="currentColor"/>
<path d="M17.4375 3.875H27.125V13.5625H17.4375V3.875ZM19.375 5.8125V11.625H25.1875V5.8125H19.375ZM15.5 15.5V19.375H17.4375V21.3125H15.5V23.25H19.375V19.375H21.3125V23.25H23.25V21.3125H27.125V19.375H21.3125V15.5H15.5ZM19.375 19.375H17.4375V17.4375H19.375V19.375ZM27.125 23.25H25.1875V25.1875H21.3125V27.125H27.125V23.25ZM19.375 27.125V25.1875H15.5V27.125H19.375Z" fill="currentColor"/>
<path d="M23.25 17.4375H27.125V15.5H23.25V17.4375Z" fill="currentColor"/>
</svg>
