<?xml version="1.0" encoding="UTF-8"?>
<svg id="Layer_1" xmlns="http://www.w3.org/2000/svg" viewBox="0 0 162 114">
  <rect fill="none" stroke="currentColor" stroke-miterlimit="10" x=".5" y="35" width="161" height="44"/>
  <path fill="currentColor" d="M32.64,64v-13.09h5.16c.99,0,1.83,.18,2.53,.53,.7,.35,1.24,.85,1.6,1.49,.37,.64,.56,1.39,.56,2.26s-.19,1.62-.56,2.24c-.38,.62-.92,1.1-1.63,1.43-.71,.33-1.56,.5-2.57,.5h-3.46v-2.22h3.01c.53,0,.97-.07,1.32-.22,.35-.14,.61-.36,.78-.65,.17-.29,.26-.65,.26-1.08s-.09-.8-.26-1.1c-.17-.3-.43-.52-.79-.68-.35-.16-.79-.24-1.32-.24h-1.87v10.83h-2.77Zm7.07-5.96l3.25,5.96h-3.06l-3.18-5.96h2.99Zm4.74,5.96v-13.09h8.82v2.28h-6.05v3.12h5.6v2.28h-5.6v3.13h6.08v2.28h-8.85Zm15.66,0h-4.64v-13.09h4.68c1.32,0,2.45,.26,3.4,.79,.95,.52,1.68,1.27,2.19,2.24,.52,.98,.77,2.14,.77,3.5s-.26,2.54-.77,3.52c-.51,.98-1.25,1.73-2.21,2.26-.95,.52-2.1,.79-3.43,.79Zm-1.87-2.37h1.76c.82,0,1.51-.14,2.06-.43,.56-.29,.98-.75,1.27-1.36,.29-.62,.43-1.41,.43-2.39s-.14-1.76-.43-2.37c-.28-.61-.7-1.07-1.26-1.36-.56-.29-1.25-.43-2.06-.43h-1.76v8.35Zm10.33,2.37v-13.09h8.82v2.28h-6.05v3.12h5.6v2.28h-5.6v3.13h6.08v2.28h-8.85Zm11.02,0v-13.09h8.82v2.28h-6.05v3.12h5.6v2.28h-5.6v3.13h6.08v2.28h-8.85Zm11.02-13.09h3.41l3.61,8.8h.15l3.6-8.8h3.41v13.09h-2.69v-8.52h-.11l-3.39,8.46h-1.83l-3.39-8.49h-.11v8.55h-2.68v-13.09Zm16.47,13.09v-13.09h8.82v2.28h-6.05v3.12h5.6v2.28h-5.6v3.13h6.08v2.28h-8.85Zm15.66,0h-4.64v-13.09h4.68c1.32,0,2.45,.26,3.4,.79,.95,.52,1.68,1.27,2.19,2.24,.51,.98,.77,2.14,.77,3.5s-.26,2.54-.77,3.52c-.51,.98-1.25,1.73-2.21,2.26-.95,.52-2.1,.79-3.43,.79Zm-1.87-2.37h1.76c.82,0,1.51-.14,2.07-.43,.56-.29,.98-.75,1.26-1.36,.29-.62,.43-1.41,.43-2.39s-.14-1.76-.43-2.37c-.28-.61-.7-1.07-1.26-1.36-.56-.29-1.25-.43-2.06-.43h-1.76v8.35Z"/>
  <g>
    <path fill="currentColor" d="M41.25,35c7.71-13.72,22.39-23,39.25-23s31.54,9.28,39.25,23h13.34C124.49,14.44,104.18,0,80.5,0S36.51,14.44,27.91,35h13.34Z"/>
    <path fill="currentColor" d="M119.75,79c-7.71,13.72-22.39,23-39.25,23s-31.54-9.28-39.25-23h-13.34c8.61,20.56,28.91,35,52.59,35s43.99-14.44,52.59-35h-13.34Z"/>
  </g>
</svg>
