<svg width="163" height="114" viewBox="0 0 163 114" fill="none" xmlns="http://www.w3.org/2000/svg">
<circle cx="81" cy="57" r="57" fill="currentColor"/>
<circle cx="81" cy="57" r="45" fill="black"/>
<rect x="1" y="35" width="161" height="44" fill="black"/>
<path d="M33.1378 64V50.9091H38.3026C39.2912 50.9091 40.1349 51.0859 40.8338 51.4396C41.5369 51.7891 42.0717 52.2855 42.4382 52.929C42.8089 53.5682 42.9943 54.3203 42.9943 55.1854C42.9943 56.0547 42.8068 56.8026 42.4318 57.429C42.0568 58.0511 41.5135 58.5284 40.8018 58.8608C40.0945 59.1932 39.2379 59.3594 38.2322 59.3594H34.7741V57.1349H37.7848C38.3132 57.1349 38.7521 57.0625 39.1016 56.9176C39.451 56.7727 39.7109 56.5554 39.8814 56.2656C40.0561 55.9759 40.1435 55.6158 40.1435 55.1854C40.1435 54.7507 40.0561 54.3842 39.8814 54.0859C39.7109 53.7876 39.4489 53.5618 39.0952 53.4084C38.7457 53.2507 38.3047 53.1719 37.772 53.1719H35.9055V64H33.1378ZM40.2074 58.0426L43.4609 64H40.4055L37.2223 58.0426H40.2074ZM44.9503 64V50.9091H53.7713V53.1911H47.718V56.3104H53.3175V58.5923H47.718V61.718H53.7969V64H44.9503ZM60.6124 64H55.9718V50.9091H60.6507C61.9675 50.9091 63.101 51.1712 64.0513 51.6953C65.0016 52.2152 65.7324 52.9631 66.2438 53.9389C66.7594 54.9148 67.0172 56.0824 67.0172 57.4418C67.0172 58.8054 66.7594 59.9773 66.2438 60.9574C65.7324 61.9375 64.9973 62.6896 64.0385 63.2138C63.084 63.7379 61.9419 64 60.6124 64ZM58.7395 61.6286H60.4973C61.3155 61.6286 62.0037 61.4837 62.562 61.1939C63.1245 60.8999 63.5463 60.446 63.8276 59.8324C64.1131 59.2145 64.2559 58.4176 64.2559 57.4418C64.2559 56.4744 64.1131 55.6839 63.8276 55.0703C63.5463 54.4567 63.1266 54.005 62.5684 53.7152C62.0101 53.4254 61.3219 53.2805 60.5037 53.2805H58.7395V61.6286ZM69.0675 64V50.9091H77.8885V53.1911H71.8352V56.3104H77.4347V58.5923H71.8352V61.718H77.9141V64H69.0675ZM80.089 64V50.9091H88.91V53.1911H82.8567V56.3104H88.4561V58.5923H82.8567V61.718H88.9355V64H80.089ZM91.1104 50.9091H94.5238L98.1289 59.7045H98.2823L101.887 50.9091H105.301V64H102.616V55.4794H102.507L99.1197 63.9361H97.2915L93.9038 55.4474H93.7951V64H91.1104V50.9091ZM107.581 64V50.9091H116.402V53.1911H110.349V56.3104H115.948V58.5923H110.349V61.718H116.428V64H107.581ZM123.243 64H118.603V50.9091H123.282C124.598 50.9091 125.732 51.1712 126.682 51.6953C127.632 52.2152 128.363 52.9631 128.875 53.9389C129.39 54.9148 129.648 56.0824 129.648 57.4418C129.648 58.8054 129.39 59.9773 128.875 60.9574C128.363 61.9375 127.628 62.6896 126.669 63.2138C125.715 63.7379 124.573 64 123.243 64ZM121.37 61.6286H123.128C123.946 61.6286 124.635 61.4837 125.193 61.1939C125.755 60.8999 126.177 60.446 126.458 59.8324C126.744 59.2145 126.887 58.4176 126.887 57.4418C126.887 56.4744 126.744 55.6839 126.458 55.0703C126.177 54.4567 125.757 54.005 125.199 53.7152C124.641 53.4254 123.953 53.2805 123.135 53.2805H121.37V61.6286Z" fill="currentColor"/>
<rect x="1" y="35" width="161" height="44" stroke="currentColor" stroke-width="2"/>
</svg>
