<svg width="78" height="64" viewBox="0 0 78 64" fill="none" xmlns="http://www.w3.org/2000/svg">
<path d="M70.1799 21.7258V11.4343C70.1799 9.61462 69.457 7.86949 68.1703 6.58279C66.8836 5.2961 65.1385 4.57324 63.3189 4.57324H11.861C10.0414 4.57324 8.29625 5.2961 7.00955 6.58279C5.72286 7.86949 5 9.61462 5 11.4343V45.7395C5 49.5131 8.08747 52.6005 11.861 52.6005H25.5831" stroke="currentColor" stroke-width="4.66898" stroke-linecap="round" stroke-linejoin="round"/>
<path d="M66.7489 35.448H46.1657C42.3765 35.448 39.3047 38.5198 39.3047 42.309V52.6006C39.3047 56.3899 42.3765 59.4616 46.1657 59.4616H66.7489C70.5381 59.4616 73.6099 56.3899 73.6099 52.6006V42.309C73.6099 38.5198 70.5381 35.448 66.7489 35.448Z" stroke="currentColor" stroke-width="4.67" stroke-linecap="round" stroke-linejoin="round"/>
</svg>
