<svg width="73" height="30" viewBox="0 0 73 30" fill="none" xmlns="http://www.w3.org/2000/svg">
<path d="M73 15.5007C73 10.3739 70.4855 6.32843 65.6798 6.32843C60.8535 6.32843 57.9335 10.374 57.9335 15.4607C57.9335 21.4887 61.3809 24.5328 66.3285 24.5328C68.7416 24.5328 70.5666 23.9921 71.9455 23.2311V19.2257C70.5668 19.9066 68.985 20.3273 66.9775 20.3273C65.0105 20.3273 63.2666 19.6463 63.0436 17.2831H72.9595C72.9595 17.0226 73 15.9813 73 15.5007ZM62.9827 13.5982C62.9827 11.3352 64.382 10.3939 65.6595 10.3939C66.8964 10.3939 68.2145 11.3352 68.2145 13.5982H62.9827ZM50.1065 6.32843C48.1191 6.32843 46.8416 7.24963 46.132 7.89062L45.8682 6.64892H41.4073V30L46.4766 28.9387L46.497 23.2711C47.227 23.7918 48.3016 24.5328 50.0861 24.5328C53.7159 24.5328 57.0211 21.6489 57.0211 15.3005C57.0009 9.49265 53.655 6.32843 50.1064 6.32843H50.1065ZM48.8898 20.1269C47.6934 20.1269 46.9835 19.7064 46.497 19.1857L46.4766 11.7557C47.0039 11.1749 47.7339 10.7745 48.8898 10.7745C50.735 10.7745 52.0125 12.8171 52.0125 15.4406C52.0125 18.1242 50.7552 20.1269 48.8898 20.1269V20.1269ZM34.4316 5.14687L39.5214 4.06542V0L34.4316 1.06145V5.14673V5.14687ZM34.4316 6.66892H39.5214V24.1923H34.4316V6.66892V6.66892ZM28.977 8.15084L28.6525 6.66892H24.2725V24.1923H29.342V12.3165C30.5382 10.7745 32.5661 11.0548 33.1948 11.2751V6.66892C32.5459 6.42855 30.1734 5.98795 28.977 8.15084ZM18.838 2.32314L13.8902 3.36445L13.87 19.4059C13.87 22.37 16.1209 24.5528 19.122 24.5528C20.7848 24.5528 22.0014 24.2524 22.6705 23.8919V19.8265C22.0218 20.0869 18.8177 21.0081 18.8177 18.0441V10.9346H22.6705V6.66892H18.8177L18.838 2.32314V2.32314ZM5.13025 11.7557C5.13025 10.9747 5.77912 10.6742 6.85402 10.6742C8.395 10.6742 10.3416 11.135 11.8827 11.956V7.24963C10.1998 6.5888 8.53701 6.32843 6.85402 6.32843C2.7375 6.32843 0 8.45134 0 11.9962C0 17.5234 7.70549 16.6423 7.70549 19.0256C7.70549 19.9466 6.89451 20.2471 5.75887 20.2471C4.07588 20.2471 1.92637 19.5662 0.222992 18.645V23.4113C2.10887 24.2124 4.015 24.5528 5.75887 24.5528C9.97662 24.5528 12.8764 22.4901 12.8764 18.9053C12.8561 12.9374 5.13025 13.9987 5.13025 11.7557V11.7557Z" fill="#635BFF"/>
</svg>
