<svg width="15" height="16" viewBox="0 0 15 16" fill="none" xmlns="http://www.w3.org/2000/svg">
<path d="M4.66683 14.6667H2.66683C2.31321 14.6667 1.97407 14.5262 1.72402 14.2762C1.47397 14.0261 1.3335 13.687 1.3335 13.3333V8.66668C1.3335 8.31306 1.47397 7.97392 1.72402 7.72387C1.97407 7.47382 2.31321 7.33334 2.66683 7.33334H4.66683M9.3335 6.00001V3.33334C9.3335 2.80291 9.12278 2.2942 8.74771 1.91913C8.37264 1.54406 7.86393 1.33334 7.3335 1.33334L4.66683 7.33334V14.6667H12.1868C12.5084 14.6703 12.8204 14.5576 13.0654 14.3493C13.3105 14.1411 13.4719 13.8513 13.5202 13.5333L14.4402 7.53334C14.4692 7.34225 14.4563 7.14713 14.4024 6.96151C14.3485 6.77589 14.2549 6.60421 14.1281 6.45835C14.0012 6.3125 13.8442 6.19596 13.6679 6.11682C13.4915 6.03768 13.3001 5.99782 13.1068 6.00001H9.3335Z" stroke="currentColor" stroke-linecap="round" stroke-linejoin="round"/>
</svg>
