<svg width="15" height="16" viewBox="0 0 15 16" fill="none" xmlns="http://www.w3.org/2000/svg">
<path d="M10.3334 1.33334H12.1134C12.4907 1.32667 12.8573 1.45876 13.1436 1.70455C13.43 1.95034 13.6161 2.29271 13.6667 2.66667V7.33334C13.6161 7.7073 13.43 8.04967 13.1436 8.29546C12.8573 8.54125 12.4907 8.67335 12.1134 8.66667H10.3334M5.66669 10V12.6667C5.66669 13.1971 5.8774 13.7058 6.25247 14.0809C6.62755 14.456 7.13625 14.6667 7.66669 14.6667L10.3334 8.66667V1.33334H2.81335C2.4918 1.32971 2.17977 1.4424 1.93475 1.65067C1.68973 1.85894 1.52824 2.14874 1.48002 2.46667L0.56002 8.46667C0.531015 8.65777 0.543904 8.85289 0.597794 9.03851C0.651684 9.22413 0.745286 9.39581 0.872115 9.54166C0.998944 9.68752 1.15597 9.80405 1.33231 9.8832C1.50864 9.96234 1.70008 10.0022 1.89335 10H5.66669Z" stroke="currentColor" stroke-linecap="round" stroke-linejoin="round"/>
</svg>
