<svg width="15" height="15" viewBox="0 0 15 15" fill="none" xmlns="http://www.w3.org/2000/svg">
<rect width="15" height="15" rx="3" fill="#929292"/>
<path d="M8.27197 6.7282C7.86243 6.31883 7.30708 6.08887 6.72803 6.08887C6.14897 6.08887 5.59362 6.31883 5.18408 6.7282L3.63963 8.27215C3.23008 8.6817 3 9.23716 3 9.81635C3 10.3955 3.23008 10.951 3.63963 11.3605C4.04917 11.7701 4.60464 12.0002 5.18383 12.0002C5.76301 12.0002 6.31848 11.7701 6.72803 11.3605L7.5 10.5886" fill="#929292"/>
<path d="M8.27197 6.7282C7.86243 6.31883 7.30708 6.08887 6.72803 6.08887C6.14897 6.08887 5.59362 6.31883 5.18408 6.7282L3.63963 8.27215C3.23008 8.6817 3 9.23716 3 9.81635C3 10.3955 3.23008 10.951 3.63963 11.3605C4.04917 11.7701 4.60464 12.0002 5.18383 12.0002C5.76301 12.0002 6.31848 11.7701 6.72803 11.3605L7.5 10.5886" stroke="white" stroke-linecap="round" stroke-linejoin="round"/>
<path d="M6.72754 8.27197C7.13708 8.68134 7.69243 8.91131 8.27149 8.91131C8.85054 8.91131 9.4059 8.68134 9.81544 8.27197L11.3599 6.72803C11.7694 6.31848 11.9995 5.76301 11.9995 5.18383C11.9995 4.60464 11.7694 4.04917 11.3599 3.63963C10.9503 3.23008 10.3949 3 9.81569 3C9.2365 3 8.68103 3.23008 8.27149 3.63963L7.49951 4.4116" fill="#929292"/>
<path d="M6.72754 8.27197C7.13708 8.68134 7.69243 8.91131 8.27149 8.91131C8.85054 8.91131 9.4059 8.68134 9.81544 8.27197L11.3599 6.72803C11.7694 6.31848 11.9995 5.76301 11.9995 5.18383C11.9995 4.60464 11.7694 4.04917 11.3599 3.63963C10.9503 3.23008 10.3949 3 9.81569 3C9.2365 3 8.68103 3.23008 8.27149 3.63963L7.49951 4.4116" stroke="white" stroke-linecap="round" stroke-linejoin="round"/>
</svg>
