<svg width="17" height="15" viewBox="0 0 17 15" fill="none" xmlns="http://www.w3.org/2000/svg">
<path fill-rule="evenodd" clip-rule="evenodd" d="M1 3.28568H13.8571C14.4255 3.28568 14.9705 3.51144 15.3724 3.91331C15.7742 4.31517 16 4.86022 16 5.42854V11.8571C16 12.4254 15.7742 12.9705 15.3724 13.3723C14.9705 13.7742 14.4255 14 13.8571 14H3.14286C2.57454 14 2.02949 13.7742 1.62763 13.3723C1.22576 12.9705 1 12.4254 1 11.8571V3.28568ZM2.07143 1.14282H11.7143C11.9984 1.14282 12.271 1.2557 12.4719 1.45664C12.6728 1.65757 12.7857 1.93009 12.7857 2.21425V3.28568H1V2.21425C1 1.93009 1.11288 1.65757 1.31381 1.45664C1.51475 1.2557 1.78727 1.14282 2.07143 1.14282V1.14282Z" stroke="white" stroke-linecap="round" stroke-linejoin="round"/>
<path d="M12.7861 8.99881C13.3778 8.99881 13.8575 8.51912 13.8575 7.92739C13.8575 7.33565 13.3778 6.85596 12.7861 6.85596C12.1944 6.85596 11.7147 7.33565 11.7147 7.92739C11.7147 8.51912 12.1944 8.99881 12.7861 8.99881Z" fill="white"/>
</svg>
