<svg width="31" height="28" viewBox="0 0 31 28" fill="none" xmlns="http://www.w3.org/2000/svg">
<path d="M29.0053 11H28.0053V5C28.0053 4.73478 27.8999 4.48043 27.7124 4.29289C27.5248 4.10536 27.2705 4 27.0053 4H3.00526C2.76848 4.00386 2.538 3.92356 2.35488 3.7734C2.17175 3.62324 2.04786 3.41296 2.00526 3.18V2.82C2.04786 2.58704 2.17175 2.37676 2.35488 2.2266C2.538 2.07644 2.76848 1.99614 3.00526 2H26.5853C26.8505 2 27.1048 1.89464 27.2924 1.70711C27.4799 1.51957 27.5853 1.26522 27.5853 1C27.5853 0.734784 27.4799 0.48043 27.2924 0.292893C27.1048 0.105357 26.8505 0 26.5853 0H3.00526C2.20961 0 1.44655 0.316071 0.883944 0.87868C0.321335 1.44129 0.00526424 2.20435 0.00526424 3C-0.00175475 3.1199 -0.00175475 3.2401 0.00526424 3.36V23.93C0.00918951 24.4684 0.11913 25.0008 0.328809 25.4967C0.538488 25.9927 0.843799 26.4424 1.22731 26.8204C1.61082 27.1983 2.06501 27.497 2.56396 27.6994C3.06291 27.9018 3.59684 28.004 4.13526 28H27.0053C27.2705 28 27.5248 27.8946 27.7124 27.7071C27.8999 27.5196 28.0053 27.2652 28.0053 27V21H29.0053C29.2705 21 29.5248 20.8946 29.7124 20.7071C29.8999 20.5196 30.0053 20.2652 30.0053 20V12C30.0053 11.7348 29.8999 11.4804 29.7124 11.2929C29.5248 11.1054 29.2705 11 29.0053 11ZM26.0053 26H4.13526C3.57907 26.0054 3.04324 25.7909 2.64436 25.4033C2.24547 25.0156 2.01578 24.4861 2.00526 23.93V5.88C2.32986 5.97407 2.66763 6.0146 3.00526 6H26.0053V11H19.0053C17.6792 11 16.4074 11.5268 15.4697 12.4645C14.532 13.4021 14.0053 14.6739 14.0053 16C14.0053 17.3261 14.532 18.5979 15.4697 19.5355C16.4074 20.4732 17.6792 21 19.0053 21H26.0053V26ZM28.0053 19H19.0053C18.2096 19 17.4466 18.6839 16.8839 18.1213C16.3213 17.5587 16.0053 16.7956 16.0053 16C16.0053 15.2044 16.3213 14.4413 16.8839 13.8787C17.4466 13.3161 18.2096 13 19.0053 13H28.0053V19Z" fill="currentColor"/>
<path d="M20.0153 17.5C20.8437 17.5 21.5153 16.8284 21.5153 16C21.5153 15.1716 20.8437 14.5 20.0153 14.5C19.1868 14.5 18.5153 15.1716 18.5153 16C18.5153 16.8284 19.1868 17.5 20.0153 17.5Z" fill="currentColor"/>
</svg>
