<svg width="223" height="114" viewBox="0 0 223 114" fill="none" xmlns="http://www.w3.org/2000/svg">
<circle cx="111" cy="57" r="57" fill="url(#paint0_linear_5_1815)"/>
<circle cx="111" cy="57" r="45" fill="#101010" fill-opacity="0.8"/>
<g filter="url(#filter0_d_5_1815)">
<rect x="8" y="34" width="207" height="46" fill="black" shape-rendering="crispEdges"/>
<path d="M40.3707 50.9091H43.4709L46.456 56.5469H46.5838L49.5689 50.9091H52.669L47.8942 59.3722V64H45.1456V59.3722L40.3707 50.9091ZM65.4196 57.4545C65.4196 58.8821 65.149 60.0966 64.6078 61.098C64.0708 62.0994 63.3379 62.8643 62.4089 63.3928C61.4842 63.9169 60.4444 64.179 59.2896 64.179C58.1262 64.179 57.0822 63.9148 56.1575 63.3864C55.2328 62.858 54.502 62.093 53.965 61.0916C53.4281 60.0902 53.1596 58.8778 53.1596 57.4545C53.1596 56.027 53.4281 54.8125 53.965 53.8111C54.502 52.8097 55.2328 52.0469 56.1575 51.5227C57.0822 50.9943 58.1262 50.7301 59.2896 50.7301C60.4444 50.7301 61.4842 50.9943 62.4089 51.5227C63.3379 52.0469 64.0708 52.8097 64.6078 53.8111C65.149 54.8125 65.4196 56.027 65.4196 57.4545ZM62.6135 57.4545C62.6135 56.5298 62.475 55.75 62.198 55.1151C61.9252 54.4801 61.5396 53.9986 61.041 53.6705C60.5424 53.3423 59.9586 53.1783 59.2896 53.1783C58.6206 53.1783 58.0368 53.3423 57.5382 53.6705C57.0396 53.9986 56.6518 54.4801 56.3748 55.1151C56.1021 55.75 55.9657 56.5298 55.9657 57.4545C55.9657 58.3793 56.1021 59.1591 56.3748 59.794C56.6518 60.429 57.0396 60.9105 57.5382 61.2386C58.0368 61.5668 58.6206 61.7308 59.2896 61.7308C59.9586 61.7308 60.5424 61.5668 61.041 61.2386C61.5396 60.9105 61.9252 60.429 62.198 59.794C62.475 59.1591 62.6135 58.3793 62.6135 57.4545ZM75.5558 50.9091H78.3235V59.4105C78.3235 60.3651 78.0955 61.2003 77.6396 61.9162C77.1879 62.6321 76.555 63.1903 75.7411 63.5909C74.9272 63.9872 73.979 64.1854 72.8967 64.1854C71.81 64.1854 70.8597 63.9872 70.0458 63.5909C69.2319 63.1903 68.5991 62.6321 68.1474 61.9162C67.6957 61.2003 67.4698 60.3651 67.4698 59.4105V50.9091H70.2376V59.174C70.2376 59.6726 70.3462 60.1158 70.5636 60.5036C70.7852 60.8913 71.0962 61.196 71.4968 61.4176C71.8974 61.6392 72.364 61.75 72.8967 61.75C73.4336 61.75 73.9002 61.6392 74.2965 61.4176C74.6971 61.196 75.006 60.8913 75.2234 60.5036C75.445 60.1158 75.5558 59.6726 75.5558 59.174V50.9091ZM84.7667 64V50.9091H89.9315C90.9201 50.9091 91.7638 51.0859 92.4627 51.4396C93.1658 51.7891 93.7006 52.2855 94.0671 52.929C94.4379 53.5682 94.6232 54.3203 94.6232 55.1854C94.6232 56.0547 94.4357 56.8026 94.0607 57.429C93.6857 58.0511 93.1424 58.5284 92.4308 58.8608C91.7234 59.1932 90.8668 59.3594 89.8612 59.3594H86.4031V57.1349H89.4137C89.9421 57.1349 90.381 57.0625 90.7305 56.9176C91.0799 56.7727 91.3398 56.5554 91.5103 56.2656C91.685 55.9759 91.7724 55.6158 91.7724 55.1854C91.7724 54.7507 91.685 54.3842 91.5103 54.0859C91.3398 53.7876 91.0778 53.5618 90.7241 53.4084C90.3746 53.2507 89.9336 53.1719 89.4009 53.1719H87.5344V64H84.7667ZM91.8363 58.0426L95.0898 64H92.0344L88.8512 58.0426H91.8363ZM96.5792 64V50.9091H105.4V53.1911H99.3469V56.3104H104.946V58.5923H99.3469V61.718H105.426V64H96.5792ZM112.241 64H107.601V50.9091H112.28C113.596 50.9091 114.73 51.1712 115.68 51.6953C116.631 52.2152 117.361 52.9631 117.873 53.9389C118.388 54.9148 118.646 56.0824 118.646 57.4418C118.646 58.8054 118.388 59.9773 117.873 60.9574C117.361 61.9375 116.626 62.6896 115.667 63.2138C114.713 63.7379 113.571 64 112.241 64ZM110.368 61.6286H112.126C112.944 61.6286 113.633 61.4837 114.191 61.1939C114.753 60.8999 115.175 60.446 115.456 59.8324C115.742 59.2145 115.885 58.4176 115.885 57.4418C115.885 56.4744 115.742 55.6839 115.456 55.0703C115.175 54.4567 114.756 54.005 114.197 53.7152C113.639 53.4254 112.951 53.2805 112.133 53.2805H110.368V61.6286ZM120.696 64V50.9091H129.517V53.1911H123.464V56.3104H129.064V58.5923H123.464V61.718H129.543V64H120.696ZM131.718 64V50.9091H140.539V53.1911H134.486V56.3104H140.085V58.5923H134.486V61.718H140.564V64H131.718ZM142.739 50.9091H146.153L149.758 59.7045H149.911L153.516 50.9091H156.93V64H154.245V55.4794H154.136L150.749 63.9361H148.92L145.533 55.4474H145.424V64H142.739V50.9091ZM159.21 64V50.9091H168.031V53.1911H161.978V56.3104H167.577V58.5923H161.978V61.718H168.057V64H159.21ZM174.872 64H170.232V50.9091H174.911C176.227 50.9091 177.361 51.1712 178.311 51.6953C179.261 52.2152 179.992 52.9631 180.504 53.9389C181.019 54.9148 181.277 56.0824 181.277 57.4418C181.277 58.8054 181.019 59.9773 180.504 60.9574C179.992 61.9375 179.257 62.6896 178.298 63.2138C177.344 63.7379 176.202 64 174.872 64ZM172.999 61.6286H174.757C175.575 61.6286 176.263 61.4837 176.822 61.1939C177.384 60.8999 177.806 60.446 178.087 59.8324C178.373 59.2145 178.516 58.4176 178.516 57.4418C178.516 56.4744 178.373 55.6839 178.087 55.0703C177.806 54.4567 177.386 54.005 176.828 53.7152C176.27 53.4254 175.582 53.2805 174.763 53.2805H172.999V61.6286Z" fill="#0EAD00"/>
<rect x="9" y="35" width="205" height="44" stroke="#0EAD00" stroke-width="2" shape-rendering="crispEdges"/>
</g>
<defs>
<filter id="filter0_d_5_1815" x="0" y="30" width="223" height="62" filterUnits="userSpaceOnUse" color-interpolation-filters="sRGB">
<feFlood flood-opacity="0" result="BackgroundImageFix"/>
<feColorMatrix in="SourceAlpha" type="matrix" values="0 0 0 0 0 0 0 0 0 0 0 0 0 0 0 0 0 0 127 0" result="hardAlpha"/>
<feOffset dy="4"/>
<feGaussianBlur stdDeviation="4"/>
<feComposite in2="hardAlpha" operator="out"/>
<feColorMatrix type="matrix" values="0 0 0 0 0 0 0 0 0 0 0 0 0 0 0 0 0 0 0.25 0"/>
<feBlend mode="normal" in2="BackgroundImageFix" result="effect1_dropShadow_5_1815"/>
<feBlend mode="normal" in="SourceGraphic" in2="effect1_dropShadow_5_1815" result="shape"/>
</filter>
<linearGradient id="paint0_linear_5_1815" x1="111" y1="0" x2="111" y2="114" gradientUnits="userSpaceOnUse">
<stop stop-color="#0A7700"/>
<stop offset="1" stop-color="#074F00"/>
</linearGradient>
</defs>
</svg>
