<svg width="207" height="114" viewBox="0 0 207 114" fill="none" xmlns="http://www.w3.org/2000/svg">
<circle cx="103" cy="57" r="57" fill="currentColor"/>
<circle cx="103" cy="57" r="45" fill="black"/>
<rect x="1" y="35" width="205" height="44" fill="black"/>
<path d="M32.3707 50.9091H35.4709L38.456 56.5469H38.5838L41.5689 50.9091H44.669L39.8942 59.3722V64H37.1456V59.3722L32.3707 50.9091ZM57.4196 57.4545C57.4196 58.8821 57.149 60.0966 56.6078 61.098C56.0708 62.0994 55.3379 62.8643 54.4089 63.3928C53.4842 63.9169 52.4444 64.179 51.2896 64.179C50.1262 64.179 49.0822 63.9148 48.1575 63.3864C47.2328 62.858 46.502 62.093 45.965 61.0916C45.4281 60.0902 45.1596 58.8778 45.1596 57.4545C45.1596 56.027 45.4281 54.8125 45.965 53.8111C46.502 52.8097 47.2328 52.0469 48.1575 51.5227C49.0822 50.9943 50.1262 50.7301 51.2896 50.7301C52.4444 50.7301 53.4842 50.9943 54.4089 51.5227C55.3379 52.0469 56.0708 52.8097 56.6078 53.8111C57.149 54.8125 57.4196 56.027 57.4196 57.4545ZM54.6135 57.4545C54.6135 56.5298 54.475 55.75 54.198 55.1151C53.9252 54.4801 53.5396 53.9986 53.041 53.6705C52.5424 53.3423 51.9586 53.1783 51.2896 53.1783C50.6206 53.1783 50.0368 53.3423 49.5382 53.6705C49.0396 53.9986 48.6518 54.4801 48.3748 55.1151C48.1021 55.75 47.9657 56.5298 47.9657 57.4545C47.9657 58.3793 48.1021 59.1591 48.3748 59.794C48.6518 60.429 49.0396 60.9105 49.5382 61.2386C50.0368 61.5668 50.6206 61.7308 51.2896 61.7308C51.9586 61.7308 52.5424 61.5668 53.041 61.2386C53.5396 60.9105 53.9252 60.429 54.198 59.794C54.475 59.1591 54.6135 58.3793 54.6135 57.4545ZM67.5558 50.9091H70.3235V59.4105C70.3235 60.3651 70.0955 61.2003 69.6396 61.9162C69.1879 62.6321 68.555 63.1903 67.7411 63.5909C66.9272 63.9872 65.979 64.1854 64.8967 64.1854C63.81 64.1854 62.8597 63.9872 62.0458 63.5909C61.2319 63.1903 60.5991 62.6321 60.1474 61.9162C59.6957 61.2003 59.4698 60.3651 59.4698 59.4105V50.9091H62.2376V59.174C62.2376 59.6726 62.3462 60.1158 62.5636 60.5036C62.7852 60.8913 63.0962 61.196 63.4968 61.4176C63.8974 61.6392 64.364 61.75 64.8967 61.75C65.4336 61.75 65.9002 61.6392 66.2965 61.4176C66.6971 61.196 67.006 60.8913 67.2234 60.5036C67.445 60.1158 67.5558 59.6726 67.5558 59.174V50.9091ZM76.7667 64V50.9091H81.9315C82.9201 50.9091 83.7638 51.0859 84.4627 51.4396C85.1658 51.7891 85.7006 52.2855 86.0671 52.929C86.4379 53.5682 86.6232 54.3203 86.6232 55.1854C86.6232 56.0547 86.4357 56.8026 86.0607 57.429C85.6857 58.0511 85.1424 58.5284 84.4308 58.8608C83.7234 59.1932 82.8668 59.3594 81.8612 59.3594H78.4031V57.1349H81.4137C81.9421 57.1349 82.381 57.0625 82.7305 56.9176C83.0799 56.7727 83.3398 56.5554 83.5103 56.2656C83.685 55.9759 83.7724 55.6158 83.7724 55.1854C83.7724 54.7507 83.685 54.3842 83.5103 54.0859C83.3398 53.7876 83.0778 53.5618 82.7241 53.4084C82.3746 53.2507 81.9336 53.1719 81.4009 53.1719H79.5344V64H76.7667ZM83.8363 58.0426L87.0898 64H84.0344L80.8512 58.0426H83.8363ZM88.5792 64V50.9091H97.4002V53.1911H91.3469V56.3104H96.9464V58.5923H91.3469V61.718H97.4258V64H88.5792ZM104.241 64H99.6007V50.9091H104.28C105.596 50.9091 106.73 51.1712 107.68 51.6953C108.631 52.2152 109.361 52.9631 109.873 53.9389C110.388 54.9148 110.646 56.0824 110.646 57.4418C110.646 58.8054 110.388 59.9773 109.873 60.9574C109.361 61.9375 108.626 62.6896 107.667 63.2138C106.713 63.7379 105.571 64 104.241 64ZM102.368 61.6286H104.126C104.944 61.6286 105.633 61.4837 106.191 61.1939C106.753 60.8999 107.175 60.446 107.456 59.8324C107.742 59.2145 107.885 58.4176 107.885 57.4418C107.885 56.4744 107.742 55.6839 107.456 55.0703C107.175 54.4567 106.756 54.005 106.197 53.7152C105.639 53.4254 104.951 53.2805 104.133 53.2805H102.368V61.6286ZM112.696 64V50.9091H121.517V53.1911H115.464V56.3104H121.064V58.5923H115.464V61.718H121.543V64H112.696ZM123.718 64V50.9091H132.539V53.1911H126.486V56.3104H132.085V58.5923H126.486V61.718H132.564V64H123.718ZM134.739 50.9091H138.153L141.758 59.7045H141.911L145.516 50.9091H148.93V64H146.245V55.4794H146.136L142.749 63.9361H140.92L137.533 55.4474H137.424V64H134.739V50.9091ZM151.21 64V50.9091H160.031V53.1911H153.978V56.3104H159.577V58.5923H153.978V61.718H160.057V64H151.21ZM166.872 64H162.232V50.9091H166.911C168.227 50.9091 169.361 51.1712 170.311 51.6953C171.261 52.2152 171.992 52.9631 172.504 53.9389C173.019 54.9148 173.277 56.0824 173.277 57.4418C173.277 58.8054 173.019 59.9773 172.504 60.9574C171.992 61.9375 171.257 62.6896 170.298 63.2138C169.344 63.7379 168.202 64 166.872 64ZM164.999 61.6286H166.757C167.575 61.6286 168.263 61.4837 168.822 61.1939C169.384 60.8999 169.806 60.446 170.087 59.8324C170.373 59.2145 170.516 58.4176 170.516 57.4418C170.516 56.4744 170.373 55.6839 170.087 55.0703C169.806 54.4567 169.386 54.005 168.828 53.7152C168.27 53.4254 167.582 53.2805 166.763 53.2805H164.999V61.6286Z" fill="currentColor"/>
<rect x="1" y="35" width="205" height="44" stroke="currentColor" stroke-width="2"/>
</svg>
