<?xml version="1.0" encoding="UTF-8"?>
<svg id="Layer_1" xmlns="http://www.w3.org/2000/svg" viewBox="0 0 206 114">
  <rect fill="none" stroke="currentColor" stroke-miterlimit="10" x=".5" y="35" width="205" height="44"/>
  <g>
    <path fill="currentColor" d="M63.25,35c7.71-13.72,22.39-23,39.25-23s31.54,9.28,39.25,23h13.34C146.49,14.44,126.18,0,102.5,0S58.51,14.44,49.91,35h13.34Z"/>
    <path fill="currentColor" d="M141.75,79c-7.71,13.72-22.39,23-39.25,23s-31.54-9.28-39.25-23h-13.34c8.61,20.56,28.91,35,52.59,35s43.99-14.44,52.59-35h-13.34Z"/>
  </g>
  <path fill="currentColor" d="M31.87,50.91h3.1l2.99,5.64h.13l2.99-5.64h3.1l-4.77,8.46v4.63h-2.75v-4.63l-4.77-8.46Zm25.05,6.55c0,1.43-.27,2.64-.81,3.64-.54,1-1.27,1.77-2.2,2.29-.92,.52-1.96,.79-3.12,.79s-2.21-.26-3.13-.79c-.92-.53-1.66-1.29-2.19-2.29-.54-1-.81-2.21-.81-3.64s.27-2.64,.81-3.64c.54-1,1.27-1.76,2.19-2.29,.92-.53,1.97-.79,3.13-.79s2.19,.26,3.12,.79c.93,.52,1.66,1.29,2.2,2.29,.54,1,.81,2.22,.81,3.64Zm-2.81,0c0-.92-.14-1.7-.42-2.34-.27-.64-.66-1.12-1.16-1.44-.5-.33-1.08-.49-1.75-.49s-1.25,.16-1.75,.49c-.5,.33-.89,.81-1.16,1.44-.27,.63-.41,1.41-.41,2.34s.14,1.7,.41,2.34c.28,.64,.66,1.12,1.16,1.44,.5,.33,1.08,.49,1.75,.49s1.25-.16,1.75-.49c.5-.33,.88-.81,1.16-1.44,.28-.63,.42-1.41,.42-2.34Zm12.94-6.55h2.77v8.5c0,.95-.23,1.79-.68,2.51-.45,.72-1.08,1.27-1.9,1.67-.81,.4-1.76,.59-2.84,.59s-2.04-.2-2.85-.59c-.81-.4-1.45-.96-1.9-1.67s-.68-1.55-.68-2.51v-8.5h2.77v8.26c0,.5,.11,.94,.33,1.33,.22,.39,.53,.69,.93,.91s.87,.33,1.4,.33,1-.11,1.4-.33c.4-.22,.71-.53,.93-.91,.22-.39,.33-.83,.33-1.33v-8.26Zm9.21,13.09v-13.09h5.16c.99,0,1.83,.18,2.53,.53,.7,.35,1.24,.85,1.6,1.49,.37,.64,.56,1.39,.56,2.26s-.19,1.62-.56,2.24c-.38,.62-.92,1.1-1.63,1.43-.71,.33-1.56,.5-2.57,.5h-3.46v-2.22h3.01c.53,0,.97-.07,1.32-.22,.35-.14,.61-.36,.78-.65,.17-.29,.26-.65,.26-1.08s-.09-.8-.26-1.1c-.17-.3-.43-.52-.79-.68-.35-.16-.79-.24-1.32-.24h-1.87v10.83h-2.77Zm7.07-5.96l3.25,5.96h-3.06l-3.18-5.96h2.99Zm4.74,5.96v-13.09h8.82v2.28h-6.05v3.12h5.6v2.28h-5.6v3.13h6.08v2.28h-8.85Zm15.66,0h-4.64v-13.09h4.68c1.32,0,2.45,.26,3.4,.79,.95,.52,1.68,1.27,2.19,2.24,.51,.98,.77,2.14,.77,3.5s-.26,2.54-.77,3.52c-.51,.98-1.25,1.73-2.21,2.26-.95,.52-2.1,.79-3.43,.79Zm-1.87-2.37h1.76c.82,0,1.51-.14,2.07-.43,.56-.29,.98-.75,1.26-1.36,.29-.62,.43-1.41,.43-2.39s-.14-1.76-.43-2.37c-.28-.61-.7-1.07-1.26-1.36-.56-.29-1.25-.43-2.06-.43h-1.77v8.35Zm10.33,2.37v-13.09h8.82v2.28h-6.05v3.12h5.6v2.28h-5.6v3.13h6.08v2.28h-8.85Zm11.02,0v-13.09h8.82v2.28h-6.05v3.12h5.6v2.28h-5.6v3.13h6.08v2.28h-8.85Zm11.02-13.09h3.41l3.6,8.8h.15l3.61-8.8h3.41v13.09h-2.68v-8.52h-.11l-3.39,8.46h-1.83l-3.39-8.49h-.11v8.55h-2.68v-13.09Zm16.47,13.09v-13.09h8.82v2.28h-6.05v3.12h5.6v2.28h-5.6v3.13h6.08v2.28h-8.85Zm15.66,0h-4.64v-13.09h4.68c1.32,0,2.45,.26,3.4,.79,.95,.52,1.68,1.27,2.19,2.24,.51,.98,.77,2.14,.77,3.5s-.26,2.54-.77,3.52c-.51,.98-1.25,1.73-2.21,2.26-.95,.52-2.1,.79-3.43,.79Zm-1.87-2.37h1.76c.82,0,1.51-.14,2.07-.43,.56-.29,.98-.75,1.26-1.36,.29-.62,.43-1.41,.43-2.39s-.14-1.76-.43-2.37c-.28-.61-.7-1.07-1.26-1.36-.56-.29-1.25-.43-2.07-.43h-1.76v8.35Z"/>
</svg>
