<svg width="16" height="16" viewBox="0 0 16 16" fill="none" xmlns="http://www.w3.org/2000/svg">
<path d="M16 8C16 3.58172 12.4183 0 8 0C3.58172 0 0 3.58172 0 8C0 12.4183 3.58172 16 8 16C12.4183 16 16 12.4183 16 8Z" fill="#0052FF"/>
<path d="M8.00246 10.8125C6.44855 10.8125 5.18994 9.55391 5.18994 8C5.18994 6.44609 6.44855 5.1875 8.00246 5.1875C9.39464 5.1875 10.5501 6.20234 10.7728 7.53125H13.6064C13.3673 4.64375 10.9509 2.375 8.00246 2.375C4.89697 2.375 2.37744 4.89453 2.37744 8C2.37744 11.1055 4.89697 13.625 8.00246 13.625C10.9509 13.625 13.3673 11.3563 13.6064 8.46875H10.7704C10.5478 9.79766 9.39464 10.8125 8.00246 10.8125Z" fill="white"/>
</svg>
