<svg width="130" height="130" viewBox="0 0 130 130" fill="none" xmlns="http://www.w3.org/2000/svg">
<circle cx="65.5" cy="64.5" r="61.5" fill="#272727"/>
<path d="M33.5 60.5986C32.5235 60.5996 31.5732 60.2841 30.7928 59.7C30.0125 59.1159 29.4445 58.2948 29.1748 57.3609C28.9051 56.4271 28.9484 55.4312 29.2981 54.524C29.6477 53.6168 30.2848 52.8475 31.1129 52.3326L43.1968 40.3092C44.0404 39.4705 45.1842 38.9996 46.3767 39C47.5692 39.0004 48.7128 39.4722 49.5557 40.3115C50.3986 41.1508 50.872 42.2889 50.8715 43.4754C50.8711 44.662 50.397 45.7998 49.5535 46.6385L44.514 51.6482H78.455C79.6473 51.6482 80.7908 52.1195 81.6338 52.9583C82.4769 53.7971 82.9505 54.9349 82.9505 56.1212C82.9505 57.3075 82.4769 58.4452 81.6338 59.284C80.7908 60.1229 79.6473 60.5941 78.455 60.5941H33.5V60.5986ZM96.5 69.4014C97.4765 69.4004 98.4268 69.7159 99.2072 70.3C99.9875 70.8841 100.555 71.7052 100.825 72.6391C101.095 73.5729 101.052 74.5688 100.702 75.476C100.352 76.3832 99.7152 77.1525 98.8871 77.6674L86.8032 89.6908C86.3855 90.106 85.8897 90.4354 85.3441 90.6601C84.7985 90.8847 84.2138 91.0002 83.6233 91C83.0328 90.9998 82.4481 90.8839 81.9027 90.6588C81.3572 90.4338 80.8617 90.1041 80.4443 89.6885C80.0269 89.2729 79.6959 88.7796 79.4701 88.2368C79.2443 87.6939 79.1282 87.1121 79.1285 86.5246C79.1287 85.937 79.2452 85.3553 79.4713 84.8126C79.6975 84.2699 80.0289 83.7768 80.4465 83.3615L85.486 78.3518H51.545C50.3527 78.3518 49.2092 77.8805 48.3662 77.0417C47.5231 76.2029 47.0495 75.0651 47.0495 73.8788C47.0495 72.6925 47.5231 71.5548 48.3662 70.716C49.2092 69.8771 50.3527 69.4059 51.545 69.4059H96.5V69.4014Z" fill="white"/>
</svg>
