<svg width="130" height="130" viewBox="0 0 130 130" fill="none" xmlns="http://www.w3.org/2000/svg">
<path fill-rule="evenodd" clip-rule="evenodd" d="M64.5 127C30.5328 127 3 99.4672 3 65.5C3 31.5328 30.5328 4 64.5 4C98.4672 4 126 31.5328 126 65.5C126 99.4672 98.4672 127 64.5 127ZM89.4844 77.6232C89.4844 67.9254 83.4266 62.4481 69.2547 59.0348V41.9686C73.6366 42.868 77.8301 44.7553 81.9314 47.7188L87.1551 39.2779C82.0098 35.5093 75.9664 33.1555 69.6276 32.4514V27.0625H61.5172V32.2708C49.863 33.1702 41.941 39.8161 41.941 49.5138C41.941 59.6613 48.2794 64.6006 61.8901 68.0138V85.6182C55.8285 84.7187 50.797 82.0243 45.4811 77.8923L39.5156 86.0641C45.9012 90.9798 53.5095 94.0555 61.5172 94.9585V103.938H69.6276V95.0469C81.4663 94.0591 89.4844 87.5016 89.4844 77.6232ZM61.8862 57.1475C54.71 55.0834 52.9418 52.658 52.9418 48.8835C52.9418 44.9359 56.0168 41.7918 61.8901 41.342L61.8862 57.1475ZM78.4836 78.2497C78.4836 82.5624 75.128 85.5259 69.2547 85.9757V69.7204C76.5271 71.7884 78.4836 74.2099 78.4836 78.2536V78.2497Z" fill="currentColor"/>
</svg>
