<?xml version="1.0" encoding="utf-8"?>
<!-- Generator: Adobe Illustrator 26.3.1, SVG Export Plug-In . SVG Version: 6.00 Build 0)  -->
<svg version="1.1" id="Layer_1" xmlns="http://www.w3.org/2000/svg" xmlns:xlink="http://www.w3.org/1999/xlink" x="0px" y="0px"
		 viewBox="0 0 16 16" style="enable-background:new 0 0 16 16;" xml:space="preserve">
<style type="text/css">
	.--usdc-icon path { fill: white; }
</style>
	<circle cx="8" cy="8" r="8" fill="#3c75c4"/>
	<path class="--usd-icon" d="M8.7,7.3l0-2.1C9.1,5.3,9.3,5.6,9.4,6c0,0.1,0.1,0.1,0.1,0.2c0.1,0,0.1,0.1,0.2,0.1h0.7l0.1,0
	c0.1,0,0.1,0,0.2-0.1c0-0.1,0.1-0.1,0.1-0.2v0l0-0.1c-0.1-0.5-0.4-0.9-0.7-1.2C9.7,4.2,9.2,4,8.7,4V2.9l0-0.1c0-0.1-0.2-0.3-0.4-0.3
	H7.7l-0.1,0c-0.1,0-0.3,0.2-0.3,0.4v1L7.2,4C5.9,4.2,5.1,5.1,5.1,6.2c0,1.3,0.7,1.9,2.3,2.2l0,2.4c-0.6-0.2-0.9-0.6-1-1.1
	c0-0.2-0.2-0.3-0.3-0.3H5.3l-0.1,0C5.1,9.5,5.1,9.5,5,9.6C5,9.6,5,9.7,5,9.8v0L5,10c0.2,1.1,0.9,1.8,2.4,2v1.1l0,0.1
	c0,0.1,0.2,0.3,0.4,0.3h0.7l0.1,0c0.1,0,0.3-0.2,0.3-0.4V12l0.2,0c1.3-0.3,2.1-1.2,2.1-2.4C11,8.2,10.3,7.6,8.7,7.3z M6.5,6.1
	c0-0.5,0.3-0.8,0.8-1l0,2C6.7,6.9,6.5,6.5,6.5,6.1z M8.8,10.8l0-2.1c0.6,0.2,0.8,0.5,0.8,1C9.6,10.2,9.3,10.6,8.8,10.8z" fill="white"/>
</svg>
