<svg width="26" height="28" viewBox="0 0 26 28" fill="none" xmlns="http://www.w3.org/2000/svg">
<path d="M20.5 9C20.5 7.01088 19.7098 5.10322 18.3033 3.6967C16.8968 2.29018 14.9891 1.5 13 1.5C11.0109 1.5 9.10322 2.29018 7.6967 3.6967C6.29018 5.10322 5.5 7.01088 5.5 9C5.5 17.75 1.75 20.25 1.75 20.25H24.25C24.25 20.25 20.5 17.75 20.5 9Z" stroke="currentColor" stroke-width="3" stroke-linecap="round" stroke-linejoin="round"/>
<path d="M15.1624 25.25C14.9426 25.6288 14.6272 25.9433 14.2477 26.1619C13.8682 26.3805 13.4379 26.4956 12.9999 26.4956C12.5619 26.4956 12.1316 26.3805 11.7521 26.1619C11.3726 25.9433 11.0572 25.6288 10.8374 25.25" stroke="currentColor" stroke-width="3" stroke-linecap="round" stroke-linejoin="round"/>
</svg>
