<svg width="19" height="19" viewBox="0 0 19 19" fill="none" xmlns="http://www.w3.org/2000/svg">
<path d="M9.5 12C10.8807 12 12 10.8807 12 9.5C12 8.11929 10.8807 7 9.5 7C8.11929 7 7 8.11929 7 9.5C7 10.8807 8.11929 12 9.5 12Z" stroke="currentColor" stroke-width="1.5" stroke-linecap="round" stroke-linejoin="round"/>
<path d="M15.2182 11.8182C15.1153 12.0512 15.0846 12.3098 15.1301 12.5605C15.1755 12.8111 15.295 13.0424 15.4732 13.2245L15.5195 13.2709C15.6632 13.4144 15.7772 13.5849 15.855 13.7725C15.9328 13.9601 15.9728 14.1612 15.9728 14.3643C15.9728 14.5674 15.9328 14.7685 15.855 14.9561C15.7772 15.1437 15.6632 15.3142 15.5195 15.4577C15.376 15.6014 15.2056 15.7154 15.018 15.7932C14.8303 15.871 14.6292 15.911 14.4261 15.911C14.223 15.911 14.0219 15.871 13.8343 15.7932C13.6467 15.7154 13.4763 15.6014 13.3327 15.4577L13.2864 15.4114C13.1042 15.2332 12.8729 15.1137 12.6223 15.0683C12.3716 15.0228 12.1131 15.0535 11.88 15.1564C11.6515 15.2543 11.4565 15.417 11.3192 15.6243C11.1819 15.8316 11.1083 16.0745 11.1073 16.3232V16.4545C11.1073 16.8644 10.9444 17.2575 10.6546 17.5473C10.3648 17.8372 9.9717 18 9.56182 18C9.15194 18 8.75885 17.8372 8.46902 17.5473C8.17919 17.2575 8.01636 16.8644 8.01636 16.4545V16.385C8.01038 16.1292 7.92759 15.8812 7.77876 15.6731C7.62992 15.465 7.42193 15.3065 7.18182 15.2182C6.94875 15.1153 6.69021 15.0846 6.43955 15.1301C6.18888 15.1755 5.95757 15.295 5.77545 15.4732L5.72909 15.5195C5.58556 15.6632 5.41511 15.7772 5.2275 15.855C5.03988 15.9328 4.83878 15.9728 4.63568 15.9728C4.43259 15.9728 4.23148 15.9328 4.04386 15.855C3.85625 15.7772 3.6858 15.6632 3.54227 15.5195C3.39858 15.376 3.28459 15.2056 3.20682 15.018C3.12904 14.8303 3.08901 14.6292 3.08901 14.4261C3.08901 14.223 3.12904 14.0219 3.20682 13.8343C3.28459 13.6467 3.39858 13.4763 3.54227 13.3327L3.58864 13.2864C3.76678 13.1042 3.88628 12.8729 3.93173 12.6223C3.97718 12.3716 3.9465 12.1131 3.84364 11.88C3.74568 11.6515 3.58304 11.4565 3.37572 11.3192C3.16841 11.1819 2.92547 11.1083 2.67682 11.1073H2.54545C2.13557 11.1073 1.74248 10.9444 1.45265 10.6546C1.16282 10.3648 1 9.9717 1 9.56182C1 9.15194 1.16282 8.75885 1.45265 8.46902C1.74248 8.17919 2.13557 8.01636 2.54545 8.01636H2.615C2.87077 8.01038 3.11882 7.92759 3.32691 7.77876C3.535 7.62992 3.69351 7.42193 3.78182 7.18182C3.88468 6.94875 3.91536 6.69021 3.86991 6.43955C3.82446 6.18888 3.70496 5.95757 3.52682 5.77545L3.48045 5.72909C3.33676 5.58556 3.22277 5.41511 3.145 5.2275C3.06722 5.03988 3.02719 4.83878 3.02719 4.63568C3.02719 4.43259 3.06722 4.23148 3.145 4.04386C3.22277 3.85625 3.33676 3.6858 3.48045 3.54227C3.62399 3.39858 3.79443 3.28459 3.98205 3.20682C4.16966 3.12904 4.37077 3.08901 4.57386 3.08901C4.77696 3.08901 4.97807 3.12904 5.16568 3.20682C5.3533 3.28459 5.52374 3.39858 5.66727 3.54227L5.71364 3.58864C5.89575 3.76678 6.12706 3.88628 6.37773 3.93173C6.6284 3.97718 6.88693 3.9465 7.12 3.84364H7.18182C7.41037 3.74568 7.60529 3.58304 7.74258 3.37572C7.87988 3.16841 7.95355 2.92547 7.95455 2.67682V2.54545C7.95455 2.13557 8.11737 1.74248 8.4072 1.45265C8.69703 1.16282 9.09012 1 9.5 1C9.90988 1 10.303 1.16282 10.5928 1.45265C10.8826 1.74248 11.0455 2.13557 11.0455 2.54545V2.615C11.0464 2.86365 11.1201 3.10659 11.2574 3.31391C11.3947 3.52122 11.5896 3.68386 11.8182 3.78182C12.0512 3.88468 12.3098 3.91536 12.5605 3.86991C12.8111 3.82446 13.0424 3.70496 13.2245 3.52682L13.2709 3.48045C13.4144 3.33676 13.5849 3.22277 13.7725 3.145C13.9601 3.06722 14.1612 3.02719 14.3643 3.02719C14.5674 3.02719 14.7685 3.06722 14.9561 3.145C15.1437 3.22277 15.3142 3.33676 15.4577 3.48045C15.6014 3.62399 15.7154 3.79443 15.7932 3.98205C15.871 4.16966 15.911 4.37077 15.911 4.57386C15.911 4.77696 15.871 4.97807 15.7932 5.16568C15.7154 5.3533 15.6014 5.52374 15.4577 5.66727L15.4114 5.71364C15.2332 5.89575 15.1137 6.12706 15.0683 6.37773C15.0228 6.6284 15.0535 6.88693 15.1564 7.12V7.18182C15.2543 7.41037 15.417 7.60529 15.6243 7.74258C15.8316 7.87988 16.0745 7.95355 16.3232 7.95455H16.4545C16.8644 7.95455 17.2575 8.11737 17.5473 8.4072C17.8372 8.69703 18 9.09012 18 9.5C18 9.90988 17.8372 10.303 17.5473 10.5928C17.2575 10.8826 16.8644 11.0455 16.4545 11.0455H16.385C16.1363 11.0464 15.8934 11.1201 15.6861 11.2574C15.4788 11.3947 15.3161 11.5896 15.2182 11.8182V11.8182Z" stroke="currentColor" stroke-width="1.5" stroke-linecap="round" stroke-linejoin="round"/>
</svg>
