<svg width="14" height="16" viewBox="0 0 14 16" fill="none" xmlns="http://www.w3.org/2000/svg">
<path d="M4.35254 2.42044V10.9431C4.35254 11.3198 4.50941 11.6811 4.78863 11.9475C5.06786 12.2138 5.44657 12.3635 5.84145 12.3635H11.7971C12.192 12.3635 12.5707 12.2138 12.8499 11.9475C13.1292 11.6811 13.286 11.3198 13.286 10.9431V4.72297C13.286 4.53373 13.2463 4.34642 13.1694 4.17201C13.0924 3.9976 12.9797 3.83962 12.8379 3.70735L10.37 1.40482C10.0918 1.14535 9.71827 1.00005 9.32924 1H5.84145C5.44657 1 5.06786 1.14965 4.78863 1.41604C4.50941 1.68242 4.35254 2.04371 4.35254 2.42044V2.42044Z" stroke="white" stroke-linecap="round" stroke-linejoin="round"/>
<path d="M10.3085 12.3637V13.7841C10.3085 14.1608 10.1516 14.5221 9.87242 14.7885C9.59319 15.0549 9.21448 15.2046 8.8196 15.2046H2.86392C2.46903 15.2046 2.09032 15.0549 1.81109 14.7885C1.53187 14.5221 1.375 14.1608 1.375 13.7841V5.97171C1.375 5.59498 1.53187 5.23369 1.81109 4.96731C2.09032 4.70092 2.46903 4.55127 2.86392 4.55127H4.35284" stroke="white" stroke-linecap="round" stroke-linejoin="round"/>
</svg>
