<svg width="15" height="14" viewBox="0 0 15 14" fill="none" xmlns="http://www.w3.org/2000/svg">
<path d="M6.31555 6.53743L11.8703 0.982714L14.074 3.18646C14.3745 3.48697 14.3747 3.98214 14.0722 4.28462C13.7697 4.58711 13.2746 4.58692 12.9741 4.28641L11.8711 3.18343L10.7711 4.28338L11.8719 5.38415C12.1746 5.68686 12.1748 6.18202 11.8723 6.48451C11.5699 6.78699 11.0747 6.78681 10.772 6.48409L9.67121 5.38332L7.41632 7.6382C7.94503 8.44292 8.15694 9.41478 8.01112 10.3661C7.8653 11.3174 7.37209 12.1806 6.62676 12.7891C5.88143 13.3976 4.93685 13.7081 3.97545 13.6608C3.01406 13.6134 2.10406 13.2114 1.42121 12.5325C0.738074 11.8508 0.332437 10.9397 0.283049 9.97614C0.23366 9.01259 0.544044 8.06534 1.15394 7.31827C1.76384 6.5712 2.62975 6.07761 3.58356 5.93331C4.53737 5.78902 5.51104 6.00433 6.31555 6.53743ZM5.82223 11.4338C6.25982 10.9963 6.50552 10.4026 6.50529 9.78356C6.50505 9.16449 6.2589 8.57068 5.82099 8.13276C5.38307 7.69485 4.78926 7.4487 4.17019 7.44846C3.55112 7.44823 2.9575 7.69393 2.51991 8.13152C2.08233 8.5691 1.83662 9.16273 1.83686 9.7818C1.83709 10.4009 2.08324 10.9947 2.52116 11.4326C2.95907 11.8705 3.55288 12.1167 4.17195 12.1169C4.79102 12.1171 5.38465 11.8714 5.82223 11.4338Z" fill="white"/>
</svg>
