<svg width="15" height="15" viewBox="0 0 15 15" fill="none" xmlns="http://www.w3.org/2000/svg">
<path d="M0.857117 0C0.629795 0 0.411784 0.088233 0.251044 0.245288C0.0903032 0.402344 0 0.615357 0 0.837467V4.18733H4.28558V0H0.857117ZM3.21419 3.1405H1.0714V1.04683H3.21419V3.1405Z" fill="white"/>
<path d="M0 13.8181C0 14.0402 0.0903037 14.2532 0.251045 14.4103C0.411787 14.5673 0.629799 14.6556 0.857121 14.6556H4.28561V10.4683H0V13.8181ZM1.0714 11.5151H3.21421V13.6087H1.0714V11.5151Z" fill="white"/>
<path d="M10.7139 14.6556H14.1423C14.3697 14.6556 14.5877 14.5673 14.7484 14.4103C14.9091 14.2532 14.9995 14.0402 14.9995 13.8181V10.4683H10.7139V14.6556ZM11.7853 11.5151H13.9281V13.6087H11.7853V11.5151Z" fill="white"/>
<path d="M14.1423 0H10.7139V4.18733H14.9995V0.837467C14.9995 0.615357 14.9091 0.402344 14.7484 0.245288C14.5877 0.088233 14.3697 0 14.1423 0ZM13.9281 3.1405H11.7853V1.04683H13.9281V3.1405Z" fill="white"/>
<path d="M8.57199 3.14059V2.09375H6.4292V4.18743H7.5006V3.14059H8.57199Z" fill="white"/>
<path d="M4.28613 4.18701H5.35755V5.23384H4.28613V4.18701Z" fill="white"/>
<path d="M5.35742 5.23389H7.50019V6.28071H5.35742V5.23389Z" fill="white"/>
<path d="M8.57159 1.04683V2.09366H9.64298V0H5.35742V2.09366H6.42881V1.04683H8.57159Z" fill="white"/>
<path d="M0 5.23389H1.0714V7.32757H0V5.23389Z" fill="white"/>
<path d="M4.28558 6.28073V7.32757H3.21419V5.23389H2.14279V7.32757H1.0714V8.3744H0V9.42124H2.14279V8.3744H3.21419V9.42124H4.28558V8.3744H5.35698V6.28073H4.28558Z" fill="white"/>
<path d="M8.5714 6.28111H9.64279V7.32794H10.7142V6.28111H11.7856V5.23428H9.64279V3.14062H8.5714V4.18745H7.5V5.23428H8.5714V6.28111Z" fill="white"/>
<path d="M7.5002 13.6089H5.35742V14.6557H9.64298V13.6089H8.57159V12.562H7.5002V13.6089Z" fill="white"/>
<path d="M9.64341 8.37443V7.3276H8.57201V6.28076H7.5006V7.3276H6.4292V8.37443H7.5006V9.42127H8.57201V8.37443H9.64341Z" fill="white"/>
<path d="M13.9287 8.37451H15.0001V9.42136H13.9287V8.37451Z" fill="white"/>
<path d="M9.64307 8.37451H12.8573V9.42136H9.64307V8.37451Z" fill="white"/>
<path d="M13.9284 5.23389H12.857V6.28072H11.7856V7.32756H12.857V8.37439H13.9284V7.32756H14.9998V6.28072H13.9284V5.23389Z" fill="white"/>
<path d="M8.57129 9.42188H9.64268V12.5624H8.57129V9.42188Z" fill="white"/>
<path d="M5.35742 12.5619H6.42881V11.515H7.50019V10.4682H6.42881V8.37451H5.35742V12.5619Z" fill="white"/>
</svg>
