<svg width="10" height="12" viewBox="0 0 10 12" fill="none" xmlns="http://www.w3.org/2000/svg">
<path d="M1 5.75V9.95C1 10.2285 1.11062 10.4955 1.30754 10.6925C1.50445 10.8894 1.77152 11 2.05 11H8.35C8.62848 11 8.89555 10.8894 9.09246 10.6925C9.28937 10.4955 9.4 10.2285 9.4 9.95V5.75" fill="#070707"/>
<path d="M1 5.75V9.95C1 10.2285 1.11062 10.4955 1.30754 10.6925C1.50445 10.8894 1.77152 11 2.05 11H8.35C8.62848 11 8.89555 10.8894 9.09246 10.6925C9.28937 10.4955 9.4 10.2285 9.4 9.95V5.75" stroke="white" stroke-linecap="round" stroke-linejoin="round"/>
<path d="M7.3001 2.6L5.2001 0.5L3.1001 2.6" fill="#070707"/>
<path d="M7.3001 2.6L5.2001 0.5L3.1001 2.6" stroke="white" stroke-linecap="round" stroke-linejoin="round"/>
<path d="M5.19995 0.5V7.325Z" fill="#070707"/>
<path d="M5.19995 0.5V7.325" stroke="white" stroke-linecap="round" stroke-linejoin="round"/>
</svg>
