<svg width="10" height="13" viewBox="0 0 10 13" fill="none" xmlns="http://www.w3.org/2000/svg">
<path d="M1 12L7.4 12C7.82435 12 8.23131 11.8551 8.53137 11.5973C8.83143 11.3394 9 10.9897 9 10.625L9 2.375C9 2.01033 8.83143 1.66059 8.53137 1.40273C8.23131 1.14487 7.82435 1 7.4 1L0.999999 1" stroke="white" stroke-linecap="round" stroke-linejoin="round"/>
<path d="M1.375 5.25C1.375 5.04289 1.20711 4.875 1 4.875C0.792893 4.875 0.625 5.04289 0.625 5.25H1.375ZM1 9H0.625V9.90533L1.26517 9.26517L1 9ZM6.375 4C6.375 3.79289 6.20711 3.625 6 3.625H2.625C2.41789 3.625 2.25 3.79289 2.25 4C2.25 4.20711 2.41789 4.375 2.625 4.375H5.625V7.375C5.625 7.58211 5.79289 7.75 6 7.75C6.20711 7.75 6.375 7.58211 6.375 7.375V4ZM0.625 5.25V9H1.375V5.25H0.625ZM1.26517 9.26517L6.26517 4.26517L5.73483 3.73483L0.734835 8.73483L1.26517 9.26517Z" fill="white"/>
</svg>
