<svg width="20" height="17" viewBox="0 0 20 17" fill="none" xmlns="http://www.w3.org/2000/svg">
<path d="M19.999 1.92442C19.4421 2.75284 18.7588 3.45903 17.9492 4.04298C17.9572 4.1996 17.9612 4.37661 17.9612 4.57403C17.9612 5.6709 17.8013 6.7691 17.4814 7.86863C17.1616 8.96816 16.673 10.0206 16.0158 11.026C15.3585 12.0313 14.5756 12.922 13.667 13.698C12.7584 14.4739 11.6662 15.0926 10.3905 15.5541C9.11474 16.0156 7.74749 16.2463 6.28872 16.2463C4.01208 16.2463 1.91551 15.6317 -0.000976562 14.4025C0.339177 14.4403 0.665413 14.4592 0.977732 14.4592C2.87968 14.4592 4.57843 13.8734 6.07398 12.7018C5.18718 12.6855 4.39299 12.4125 3.6914 11.8828C2.98981 11.3531 2.50699 10.6762 2.24294 9.85222C2.50393 9.90193 2.76153 9.92679 3.01571 9.92679C3.3816 9.92679 3.74163 9.87906 4.0958 9.78362C3.14942 9.59408 2.36432 9.12272 1.74049 8.36955C1.11669 7.61638 0.80479 6.74708 0.80479 5.76165V5.71086C1.38568 6.03249 2.00529 6.20358 2.66362 6.22411C2.103 5.85036 1.65851 5.36298 1.33015 4.76196C1.00177 4.16095 0.837575 3.51055 0.837575 2.81075C0.837575 2.07271 1.02252 1.38544 1.3924 0.74897C2.42157 2.01192 3.66863 3.02132 5.13356 3.77715C6.59852 4.53299 8.17015 4.95276 9.84843 5.03646C9.77685 4.73815 9.74099 4.42684 9.74086 4.10254C9.74086 2.97022 10.1416 2.00338 10.943 1.20203C11.7444 0.400677 12.7113 0 13.8436 0C15.0291 0 16.0277 0.431669 16.8393 1.29501C17.7666 1.11133 18.6349 0.779096 19.4441 0.298314C19.1324 1.27948 18.5316 2.03638 17.6419 2.56902C18.4596 2.47185 19.2453 2.25698 19.999 1.92442H19.999Z" fill="white"/>
</svg>
